<?xml version="1.0" encoding="utf-8"?>
<!-- Generator: Adobe Illustrator 26.0.1, SVG Export Plug-In . SVG Version: 6.00 Build 0)  -->
<svg version="1.1" id="Layer_1" xmlns="http://www.w3.org/2000/svg" xmlns:xlink="http://www.w3.org/1999/xlink" x="0px" y="0px"
	 viewBox="0 315 1920 400" style="enable-background:new 0 0 1920 1080;" xml:space="preserve">
<style type="text/css">
	.st0{fill:url(#SVGID_1_);}
	.st1{fill:#FFFFFF;}
	.st2{fill:#323E4F;}
</style>
<linearGradient id="SVGID_1_" gradientUnits="userSpaceOnUse" x1="1807.8204" y1="625.5121" x2="1656.9551" y2="375.1264">
	<stop  offset="0" style="stop-color:#3EB397"/>
	<stop  offset="1" style="stop-color:#0074A5"/>
</linearGradient>
<rect x="1580.83" y="337.65" class="st0" width="324.32" height="360.53"/>
<g>
	<path class="st1" d="M1801.94,449.32l-0.01-0.01c0,0.03,0,0.05,0,0.08c0,4.15-3.36,7.51-7.52,7.51c-2.07,0-3.94-0.84-5.3-2.19v0.01
		c-2.5-2.5-6.56-2.5-9.07-0.01c-2.49,2.51-2.48,6.56,0.02,9.06h-0.01c1.35,1.36,2.19,3.23,2.19,5.3c0,2.07-0.84,3.94-2.19,5.3h0.01
		c-1.71,1.7-2.25,4.13-1.63,6.3c4.9-1.54,8.46-6.13,8.46-11.54l0.01,0.01c0-0.02-0.01-0.05-0.01-0.07c0-4.15,3.37-7.52,7.52-7.52
		c0.02,0,0.05,0,0.07,0l-0.01-0.01c6.68,0,12.1-5.42,12.1-12.1l0.03,0.03c0-0.03,0-0.06,0-0.1c0-2.07,0.84-3.94,2.19-5.3h-0.03
		c1.71-1.71,2.25-4.13,1.63-6.3C1805.5,439.33,1801.94,443.91,1801.94,449.32z"/>
	<path class="st1" d="M1749.71,474.38c-1.35-1.36-2.19-3.23-2.19-5.3c0-0.03,0-0.05,0-0.07l-0.01,0.01c0-6.68-5.42-12.11-12.1-12.11
		l0.01-0.01c-0.03,0-0.05,0-0.08,0c-0.03,0-0.06,0-0.09-0.01l0.01,0.02c-5.41,0-10,3.56-11.54,8.46c2.17,0.61,4.59,0.07,6.3-1.64
		v0.03c1.36-1.36,3.24-2.21,5.32-2.21c4.15,0,7.52,3.37,7.52,7.52c0,4.15-3.36,7.51-7.52,7.51c-2.08,0-3.95-0.84-5.32-2.2v0.03
		c-1.7-1.71-4.13-2.25-6.3-1.63c1.55,4.9,6.13,8.46,11.54,8.46l-0.01,0.01c0.03,0,0.06,0,0.09,0c2.07,0,3.94,0.84,5.3,2.19v-0.01
		c2.51,2.5,6.56,2.51,9.07,0.01c2.48-2.51,2.47-6.56-0.02-9.06H1749.71z"/>
	<path class="st1" d="M1769.4,454.69c-1.36-1.36-2.19-3.23-2.19-5.3c0-0.03,0-0.05,0-0.08l-0.01,0.01c0-6.68-5.42-12.1-12.11-12.1
		l0.01-0.01c-0.02,0-0.05,0-0.07,0c-2.07,0-3.94-0.84-5.3-2.19v0.01c-2.5-2.5-6.56-2.51-9.06-0.02c-2.49,2.5-2.49,6.54-0.01,9.05
		c2.52,2.49,6.57,2.49,9.07-0.01v0.01c1.36-1.35,3.23-2.19,5.3-2.19c4.15,0,7.52,3.36,7.52,7.52c0,4.15-3.36,7.51-7.52,7.51
		c-2.07,0-3.94-0.84-5.3-2.19v0.01c-1.71-1.71-4.14-2.25-6.3-1.63c1.55,4.9,6.13,8.46,11.54,8.46l-0.01,0.01c0.03,0,0.05,0,0.07,0
		c2.07,0,3.94,0.84,5.3,2.19v-0.02c2.51,2.51,6.57,2.51,9.07,0.01c2.48-2.51,2.47-6.56-0.02-9.06H1769.4z"/>
	<path class="st1" d="M1885.34,488.7c0-6.68-5.42-12.1-12.1-12.1l0.01-0.02c-0.03,0-0.05,0-0.07,0c-2.07,0-3.94-0.84-5.3-2.19v0.01
		c-2.5-2.5-6.56-2.51-9.07-0.01c-2.48,2.5-2.48,6.53-0.01,9.03c2.51,2.5,6.57,2.5,9.08,0v0.01c1.36-1.35,3.24-2.19,5.3-2.19
		c4.15,0,7.51,3.36,7.51,7.51c0,2.07-0.84,3.95-2.19,5.3h0.01c-1.71,1.71-2.25,4.13-1.63,6.3c4.9-1.55,8.46-6.13,8.46-11.55
		l0.01,0.01c0-0.02,0-0.05,0-0.07c0-0.03,0-0.05,0-0.07L1885.34,488.7z"/>
	<path class="st1" d="M1573.74,331.03v374.72h338.51V331.03H1573.74z M1715.66,363.11c4.15,0,7.51,3.36,7.51,7.52
		c0,0.03,0,0.05,0,0.07l0.01-0.01c0,6.39,4.95,11.6,11.22,12.06c0.31-0.04,0.63-0.07,0.94-0.07c2.07,0,3.94,0.84,5.3,2.19v-0.01
		c2.51,2.51,6.58,2.51,9.08,0v0.01c1.36-1.35,3.23-2.19,5.3-2.19c4.15,0,7.52,3.36,7.52,7.52c0,4.15-3.36,7.52-7.52,7.52
		c-2.07,0-3.94-0.84-5.3-2.19v0.01c-2.51-2.51-6.58-2.51-9.08,0v-0.01c-1.36,1.35-3.23,2.19-5.3,2.19c-4.13,0-7.49-3.34-7.51-7.47
		l-0.01,0.01c0-6.69-5.42-12.1-12.1-12.1l0.01-0.01c-0.02,0-0.05,0-0.07,0c-4.15,0-7.52-3.36-7.52-7.52
		S1711.51,363.11,1715.66,363.11z M1636.9,343.42c4.15,0,7.51,3.36,7.51,7.52c0,0.02,0,0.03,0,0.05l0.01-0.01
		c0,6.69,5.42,12.1,12.1,12.1l-0.04,0.04c0.03,0,0.07,0,0.1,0c4.15,0,7.52,3.36,7.52,7.52s-3.36,7.52-7.52,7.52
		c-4.15,0-7.52-3.36-7.52-7.52c0-0.03,0.01-0.07,0.01-0.1l-0.02,0.01c0-6.64-5.35-12.03-11.98-12.1c-0.06,0-0.12,0.01-0.19,0.01
		c-4.15,0-7.52-3.37-7.52-7.52C1629.38,346.79,1632.75,343.42,1636.9,343.42z M1814.04,614.42c-5.41,0-10,3.56-11.54,8.46
		c2.17,0.62,4.59,0.07,6.3-1.63v0.01c1.36-1.35,3.23-2.19,5.3-2.19c4.15,0,7.52,3.37,7.52,7.51c0,4.15-3.36,7.52-7.52,7.52
		c-2.07,0-3.94-0.84-5.3-2.19v0.01c-2.51-2.51-6.57-2.51-9.08,0v-0.01c-1.36,1.35-3.23,2.19-5.3,2.19c-2.07,0-3.94-0.84-5.3-2.19
		c0,0-2.3-2.63-6.3-1.62c1.55,4.9,6.13,8.46,11.54,8.46l-0.01,0.01c0.03,0,0.06,0,0.1,0c4.15,0,7.51,3.36,7.51,7.52
		c0,2.07-0.84,3.94-2.19,5.3h0.01c-2.51,2.51-2.51,6.58,0,9.08h-0.01c1.36,1.36,2.19,3.23,2.19,5.3c0,4.15-3.36,7.52-7.51,7.52
		c0,0-0.01,0-0.01,0c0,0-0.01,0-0.01,0c-4.15,0-7.52-3.37-7.52-7.52c0-2.09,0.86-3.98,2.24-5.34c1.68-1.71,2.21-4.11,1.6-6.26
		c-4.89,1.54-8.44,6.1-8.47,11.49c0.11,5.96,4.52,10.85,10.27,11.72c0.6-0.16,1.23-0.25,1.89-0.25c4.15,0,7.52,3.36,7.52,7.52
		s-3.36,7.52-7.52,7.52c-4.04,0-7.33-3.19-7.5-7.2l-0.03,0.03c0-6.06-4.46-11.07-10.28-11.95c-0.61,0.16-1.23,0.25-1.89,0.25
		c-4.15,0-7.52-3.37-7.52-7.52c0-4.15,3.36-7.51,7.52-7.51c0.03,0,0.06,0,0.09,0l-0.02-0.01c6.68,0,12.1-5.42,12.1-12.1l0.02,0.02
		c0-0.03,0-0.05,0-0.08c0-0.03,0-0.06,0-0.1l-0.04,0.04c0-5.41-3.56-10-8.46-11.54c-0.61,2.17-0.07,4.6,1.63,6.3h-0.01
		c1.35,1.36,2.19,3.23,2.19,5.3c0,4.15-3.36,7.52-7.51,7.52c-4.15,0-7.52-3.36-7.52-7.52c0-2.07,0.84-3.95,2.19-5.3h-0.01
		c2.51-2.51,2.51-6.57,0-9.08h0.01c-1.36-1.36-2.19-3.23-2.19-5.31c0-4.15,3.36-7.51,7.52-7.51c2.07,0,3.94,0.84,5.3,2.19v-0.02
		c1.71,1.71,4.13,2.25,6.3,1.64c-1.55-4.91-6.13-8.46-11.54-8.46l0.01-0.01c-0.02,0-0.05,0-0.07,0c-4.15,0-7.52-3.36-7.52-7.52
		c0-2.11,0.87-4.01,2.27-5.38c2.37-2.49,2.37-6.39,0-8.87c-1.4-1.36-2.27-3.27-2.27-5.38c0-4.15,3.36-7.51,7.52-7.51
		c2.07,0,3.94,0.84,5.3,2.19v-0.02c1.71,1.71,4.15,2.25,6.32,1.63c-1.53-4.93-6.13-8.51-11.56-8.51l0.01-0.01c-0.02,0-0.05,0-0.07,0
		c-4.15,0-7.52-3.36-7.52-7.52c0-4.15,3.36-7.52,7.52-7.52c0.03,0,0.05,0,0.07,0l-0.01-0.01c6.69,0,12.1-5.42,12.1-12.1l0.01,0.01
		c0-0.02-0.01-0.05-0.01-0.07c0-4.15,3.37-7.52,7.52-7.52c4.15,0,7.52,3.36,7.52,7.52s-3.36,7.51-7.52,7.51c-0.03,0-0.05,0-0.07,0
		l0.01,0.02c-6.68,0-12.1,5.42-12.1,12.1l-0.01-0.01c0,0.03,0,0.05,0,0.07c0,0.03,0,0.05,0,0.08l0.01-0.01
		c0,6.68,5.42,12.1,12.1,12.1l-0.07,0.07c0.05,0,0.09,0,0.13,0c4.15,0,7.52,3.36,7.52,7.51c0,4.15-3.36,7.51-7.52,7.51
		c-2.07,0-3.94-0.84-5.3-2.19v0.02c-2.5-2.51-6.58-2.51-9.08,0v-0.01c-0.02,0.02-0.04,0.04-0.06,0.05c-2.38,2.48-2.38,6.4,0,8.88
		c1.4,1.36,2.27,3.27,2.27,5.38c0,0.03,0,0.05,0,0.07l0.01-0.01c0,6.68,5.42,12.1,12.1,12.1l-0.01,0.02c0.02,0,0.05,0,0.07,0
		c0.02,0,0.05,0,0.07,0l-0.01-0.02c6.68,0,12.1-5.42,12.1-12.1l0.01,0.01c0-0.02,0-0.05,0-0.07c0-4.15,3.36-7.52,7.52-7.52
		c4.15,0,7.52,3.36,7.52,7.52s-3.36,7.52-7.52,7.52c-0.03,0-0.05,0-0.08,0L1814.04,614.42z M1853.48,575.04
		c-4.15,0-7.52-3.36-7.52-7.52c0-0.03,0-0.05,0-0.07l-0.01,0.01c0-6.69-5.42-12.1-12.1-12.1l0.01-0.02c-0.02,0-0.05,0-0.07,0
		c-4.15,0-7.52-3.36-7.52-7.51c0-0.03,0-0.05,0-0.08l-0.01,0.01c0-6.68-5.42-12.1-12.1-12.1l0.01-0.01c-0.03,0-0.05,0-0.07,0
		c-4.15,0-7.52-3.36-7.52-7.51c0-4.15,3.36-7.52,7.52-7.52c4.15,0,7.52,3.36,7.52,7.52c0,0.02,0,0.05,0,0.07l0.01-0.01
		c0,6.68,5.42,12.1,12.11,12.1l-0.01,0.01c0.02,0,0.05,0,0.07,0c0.03,0,0.05,0,0.07,0l-0.01-0.01c6.68,0,12.1-5.42,12.1-12.1
		l0.01,0.01c0-0.03,0-0.05,0-0.07c0-4.15,3.36-7.52,7.52-7.52c4.15,0,7.52,3.36,7.52,7.52c0,4.15-3.36,7.51-7.52,7.51
		c-0.03,0-0.05,0-0.07,0l0.01,0.01c-6.68,0-12.1,5.42-12.1,12.1l-0.01-0.01c0,0.02,0.01,0.05,0.01,0.07c0,0.02-0.01,0.05-0.01,0.07
		l0.01-0.01c0,6.69,5.42,12.1,12.1,12.1l-0.01,0.01c0.02,0,0.05,0,0.07,0c4.15,0,7.52,3.36,7.52,7.52
		C1861,571.67,1857.63,575.04,1853.48,575.04z M1892.8,496.29c-6.68,0-12.1,5.42-12.1,12.1l-0.01-0.02c0,0.03,0,0.05,0,0.08
		s0,0.05,0,0.08l0.01-0.01c0,5.41,3.56,10,8.46,11.54c0.62-2.17,0.07-4.6-1.63-6.3h0.01c-1.35-1.36-2.19-3.23-2.19-5.3
		c0-4.15,3.36-7.51,7.51-7.51c4.15,0,7.52,3.36,7.52,7.51c0,2.07-0.84,3.94-2.19,5.3h0.01c-2.5,2.51-2.5,6.58,0,9.09h-0.01
		c1.35,1.36,2.19,3.23,2.19,5.3c0,4.15-3.36,7.51-7.52,7.51c-4.15,0-7.51-3.36-7.51-7.51c0-0.03,0-0.05,0-0.08l-0.01,0.01
		c0-6.68-5.42-12.1-12.1-12.1l0.01-0.01c-0.03,0-0.05,0-0.07,0c-4.15,0-7.52-3.37-7.52-7.52c0-2.07,0.84-3.94,2.19-5.3h-0.01
		c2.5-2.51,2.51-6.56,0.02-9.06c-2.5-2.49-6.54-2.49-9.04-0.01c-2.49,2.51-2.49,6.56,0.01,9.07h-0.01c1.36,1.36,2.19,3.23,2.19,5.3
		c0,0.03,0,0.05,0,0.08l0.01-0.01c0,6.68,5.42,12.1,12.1,12.1l-0.01,0.01c0.03,0,0.06,0,0.1,0c4.15,0,7.51,3.36,7.51,7.52
		c0,2.07-0.84,3.94-2.19,5.3h0.01c-2.51,2.51-2.51,6.58,0,9.08h-0.01c1.35,1.36,2.19,3.23,2.19,5.3c0,4.15-3.36,7.51-7.51,7.51
		c-2.08,0-3.96-0.85-5.33-2.21v0.04c-2.51-2.51-6.58-2.51-9.08,0v-0.01c-1.36,1.35-3.24,2.19-5.3,2.19c-4.15,0-7.52-3.36-7.52-7.51
		s3.36-7.52,7.52-7.52c2.07,0,3.94,0.84,5.3,2.19v-0.01c2.51,2.51,6.57,2.51,9.08,0v0.02c2.49-2.52,2.49-6.57-0.01-9.07h0.01
		c-1.35-1.36-2.19-3.23-2.19-5.3c0-0.03,0-0.06,0-0.1l-0.03,0.03c0-6.68-5.42-12.1-12.11-12.1l0.01-0.01c-0.02,0-0.05,0-0.07,0
		c-4.15,0-7.52-3.37-7.52-7.52c0-2.07,0.84-3.94,2.19-5.3h-0.01c1.7-1.71,2.25-4.14,1.63-6.3c-4.9,1.55-8.46,6.13-8.46,11.55
		l-0.01-0.01c0,0.02,0.01,0.05,0.01,0.07c0,2.07-0.84,3.94-2.19,5.3h0.01c-2.51,2.51-2.51,6.58,0,9.09h-0.01
		c1.35,1.36,2.19,3.23,2.19,5.3c0,4.15-3.37,7.51-7.52,7.51c-4.15,0-7.52-3.36-7.52-7.51c0-2.07,0.84-3.94,2.19-5.3h-0.01
		c2.51-2.51,2.51-6.58,0-9.09h0.01c-1.36-1.36-2.19-3.23-2.19-5.3c0-4.15,3.36-7.51,7.52-7.51c0.03,0,0.05,0,0.07,0l-0.01-0.01
		c6.68,0,12.1-5.42,12.1-12.1l0.01,0.01c0-0.03,0-0.05,0-0.08c0-2.07,0.84-3.94,2.19-5.3h-0.01c1.7-1.71,2.25-4.14,1.63-6.3
		c-4.9,1.55-8.46,6.13-8.46,11.54l-0.01-0.01c0,0.02,0.01,0.05,0.01,0.07c0,4.15-3.37,7.52-7.52,7.52c-4.15,0-7.52-3.36-7.52-7.52
		c0-4.15,3.36-7.51,7.52-7.51c0.02,0,0.05,0,0.07,0l-0.01-0.01c6.68,0,12.1-5.42,12.1-12.1l0.01,0.01c0-0.02,0-0.05,0-0.07
		c0-0.03,0-0.05,0-0.07l-0.01,0.01c0-6.68-5.42-12.11-12.1-12.11l0.01-0.01c-0.02,0-0.05,0-0.07,0c-4.15,0-7.52-3.36-7.52-7.51
		c0-0.03,0-0.05,0-0.08l-0.01,0.01c0-5.41-3.56-10-8.46-11.54c-0.61,2.15-0.08,4.56,1.6,6.26c1.38,1.36,2.23,3.25,2.23,5.34
		c0,2.07-0.84,3.94-2.19,5.3h0.01c-2.5,2.51-2.5,6.57,0,9.08h0c2.51,2.47,6.55,2.46,9.05-0.04v0.01c1.36-1.35,3.23-2.18,5.29-2.18
		c4.15,0,7.52,3.37,7.52,7.52c0,4.15-3.37,7.51-7.52,7.51c-2.06,0-3.94-0.83-5.29-2.18v0.01c-2.51-2.51-6.58-2.51-9.08,0v0
		c-1.36,1.35-3.23,2.18-5.29,2.18c-4.15,0-7.51-3.37-7.51-7.51c0-2.07,0.84-3.95,2.19-5.3h-0.01c1.71-1.71,2.25-4.14,1.63-6.31
		c-4.91,1.54-8.48,6.13-8.48,11.55l-0.01-0.01c0,0.02,0,0.05,0,0.07c0,4.15-3.36,7.51-7.52,7.51c-0.02,0-0.05,0-0.07,0l0.01,0.02
		c-6.68,0-12.1,5.42-12.1,12.1l-0.01-0.01c0,0.03,0,0.05,0,0.07c0,4.15-3.36,7.52-7.51,7.52c-4.15,0-7.52-3.36-7.52-7.52
		c0-2.07,0.84-3.94,2.19-5.3h-0.01c2.5-2.51,2.5-6.55,0.02-9.06c-2.5-2.5-6.55-2.5-9.06-0.01c-2.49,2.51-2.49,6.57,0.01,9.07h-0.01
		c1.35,1.36,2.19,3.23,2.19,5.3c0,0.03,0,0.05,0,0.08l0.01-0.01c0,6.68,5.42,12.1,12.1,12.1l-0.01,0.01c0.02,0,0.05,0,0.07,0
		c2.07,0,3.94,0.84,5.3,2.19v-0.02c2.51,2.51,6.57,2.51,9.07,0.01c2.48-2.51,2.47-6.56-0.02-9.06h0.01
		c-1.35-1.36-2.19-3.24-2.19-5.3c0-4.15,3.37-7.51,7.52-7.51c2.07,0,3.94,0.84,5.3,2.19v-0.01c2.51,2.51,6.58,2.51,9.08,0v0.01
		c1.36-1.35,3.23-2.19,5.3-2.19c4.15,0,7.52,3.36,7.52,7.51c0,2.07-0.84,3.95-2.19,5.3h0.01c-2.51,2.5-2.51,6.58,0,9.08h-0.01
		c1.35,1.36,2.19,3.23,2.19,5.3c0,4.15-3.36,7.52-7.52,7.52c-0.03,0-0.05,0-0.07,0l0.01,0.01c-6.68,0-12.1,5.42-12.1,12.1
		l-0.01-0.01c0,0.03,0,0.05,0,0.08c0,0.02,0,0.05,0,0.07l0.01-0.01c0,6.68,5.42,12.1,12.1,12.1l-0.01,0.01c0.03,0,0.05,0,0.07,0
		c4.15,0,7.52,3.36,7.52,7.52c0,2.07-0.84,3.94-2.19,5.3h0.03c-2.5,2.51-2.5,6.58,0,9.08h-0.01c2.51,2.47,6.55,2.46,9.04-0.03v0.01
		c1.36-1.36,3.23-2.19,5.3-2.19c4.15,0,7.52,3.36,7.52,7.52c0,4.15-3.37,7.52-7.52,7.52c-2.07,0-3.95-0.84-5.3-2.19v0.01
		c-1.71-1.71-4.13-2.25-6.3-1.63c1.54,4.88,6.09,8.42,11.47,8.46c0.05,0,0.09-0.01,0.14-0.01c4.15,0,7.52,3.36,7.52,7.51
		c0,4.15-3.37,7.51-7.52,7.51c-2.06,0-3.94-0.83-5.29-2.18v0.01c-2.51-2.51-6.58-2.51-9.08,0v-0.02c-1.36,1.36-3.24,2.2-5.31,2.2
		c-0.03,0-0.06,0-0.1,0l0.03,0.04c-6.68,0-12.1,5.42-12.1,12.1l-0.01-0.01c0,0.03,0,0.05,0,0.07c0,4.15-3.36,7.52-7.52,7.52
		c-4.15,0-7.52-3.36-7.52-7.52s3.37-7.52,7.52-7.52c0.02,0,0.05,0,0.07,0l-0.01-0.01c6.68,0,12.1-5.42,12.1-12.1l0.01,0.02
		c0-0.03,0-0.06,0-0.1c0-4.15,3.36-7.51,7.52-7.51c2.07,0,3.95,0.84,5.31,2.2v-0.02c1.71,1.7,4.12,2.24,6.29,1.64
		c-1.55-4.89-6.13-8.44-11.54-8.44l0.01-0.01c-0.02,0-0.05,0-0.07,0c-2.07,0-3.94-0.84-5.3-2.19v0.01c-2.51-2.51-6.57-2.51-9.08,0
		v-0.01c-1.36,1.35-3.23,2.19-5.3,2.19c-4.15,0-7.52-3.36-7.52-7.52c0-4.15,3.37-7.52,7.52-7.52c2.07,0,3.94,0.84,5.3,2.19v-0.01
		c2.51,2.51,6.58,2.51,9.08,0v0.01c0.01-0.01,0.02-0.02,0.03-0.03c2.44-2.5,2.44-6.49-0.01-8.99c-1.38-1.36-2.24-3.25-2.24-5.35
		c0-0.03,0-0.05,0-0.07l-0.01,0.01c0-6.69-5.42-12.1-12.1-12.1l0.01-0.01c-0.02,0-0.05,0-0.07,0c-4.15,0-7.52-3.36-7.52-7.51
		c0-4.15,3.37-7.52,7.52-7.52c0.02,0,0.05,0,0.07,0l-0.01-0.01c6.68,0,12.1-5.42,12.1-12.1l0.01,0.01c0-0.03,0-0.05,0-0.08
		c0-2.07,0.84-3.94,2.19-5.3h-0.01c2.5-2.51,2.51-6.56,0.01-9.06c-2.5-2.49-6.54-2.49-9.04-0.01c-2.5,2.51-2.49,6.56,0.01,9.07
		h-0.01c1.36,1.36,2.19,3.23,2.19,5.3c0,4.15-3.36,7.52-7.52,7.52c-2.07,0-3.94-0.84-5.3-2.19v0.01c-2.5-2.51-6.58-2.51-9.08,0
		v-0.02c-1.36,1.35-3.23,2.19-5.3,2.19c-4.15,0-7.52-3.37-7.52-7.52c0-0.03,0-0.05,0-0.08l-0.01,0.02c0-6.69-5.42-12.1-12.11-12.1
		l0.01-0.01c-0.02,0-0.05,0-0.07,0c-2.07,0-3.94-0.84-5.3-2.19v0.01c-2.5-2.5-6.55-2.51-9.06-0.03c-2.5,2.51-2.5,6.57,0.01,9.07
		h-0.02c2.51,2.49,6.57,2.49,9.07-0.01v0.01c1.36-1.36,3.23-2.19,5.3-2.19c4.15,0,7.52,3.36,7.52,7.52c0,4.15-3.36,7.52-7.52,7.52
		c-2.07,0-3.94-0.84-5.3-2.19v0.01c-1.71-1.7-4.13-2.25-6.3-1.63c1.55,4.9,6.13,8.44,11.54,8.44l-0.01,0.01c0.03,0,0.05,0,0.07,0
		c2.07,0,3.94,0.84,5.3,2.19v-0.01c2.51,2.51,6.58,2.51,9.08,0v0.01c1.36-1.35,3.24-2.19,5.3-2.19c4.15,0,7.51,3.36,7.51,7.52
		c0,2.07-0.84,3.94-2.19,5.3h0.01c-2.51,2.51-2.51,6.58,0,9.08h-0.01c1.35,1.36,2.19,3.23,2.19,5.3c0,4.15-3.36,7.51-7.51,7.51
		c-4.15,0-7.52-3.36-7.52-7.51c0-2.07,0.84-3.95,2.19-5.3h-0.01c2.5-2.5,2.5-6.55,0.02-9.06c-2.51-2.5-6.57-2.5-9.07,0.01v-0.01
		c-1.36,1.35-3.23,2.19-5.3,2.19c-4.15,0-7.52-3.36-7.52-7.51c0-0.03,0-0.05,0-0.08l-0.01,0.01c0-6.66-5.38-12.06-12.03-12.1
		c-0.05,0-0.09,0.01-0.14,0.01c-4.15,0-7.51-3.36-7.51-7.52c0-2.08,0.85-3.96,2.21-5.32h-0.03c2.51-2.51,2.51-6.58,0-9.08h0.01
		c-1.35-1.36-2.19-3.24-2.19-5.3c0-0.03,0-0.06,0-0.09l-0.03,0.03c0-5.41-3.55-9.99-8.46-11.54c-0.62,2.17-0.07,4.6,1.63,6.3h-0.01
		c1.35,1.36,2.19,3.23,2.19,5.3c0,4.15-3.37,7.52-7.52,7.52c-4.15,0-7.51-3.36-7.51-7.52c0-2.07,0.84-3.94,2.19-5.3h-0.01
		c2.5-2.51,2.5-6.58,0-9.08h0.01c-1.35-1.36-2.19-3.23-2.19-5.3c0-4.15,3.36-7.52,7.51-7.52c0.02,0,0.05,0,0.07,0l-0.01-0.01
		c6.69,0,12.1-5.42,12.1-12.1l0.03,0.03c0-0.03,0-0.06,0-0.09c0-2.07,0.84-3.94,2.19-5.3h-0.01c2.51-2.51,2.51-6.58,0-9.08h0.01
		c-1.35-1.36-2.19-3.23-2.19-5.3c0-0.03,0-0.05,0-0.08l-0.01,0.01c0-6.68-5.42-12.1-12.1-12.1l0.01-0.01c-0.02,0-0.05,0-0.07,0
		c-2.07,0-3.94-0.84-5.3-2.19v0.01c-2.51-2.51-6.58-2.51-9.08,0v-0.01c-1.36,1.35-3.23,2.19-5.3,2.19c-3.3,0-5.3-2.18-5.3-2.18
		c-2.51-2.51-6.58-2.51-9.08,0c0,0-1.95,2.18-5.3,2.18c-3.35,0-5.3-2.18-5.3-2.18c-2.51-2.51-6.58-2.51-9.08,0v-0.01
		c-1.36,1.35-3.23,2.19-5.3,2.19c-4.15,0-7.52-3.36-7.52-7.52c0-4.15,3.36-7.52,7.52-7.52c2.07,0,3.94,0.84,5.3,2.19v-0.01
		c1.71,1.71,4.13,2.25,6.3,1.63c-1.55-4.9-6.13-8.46-11.54-8.46l0.01-0.01c-0.02,0-0.05,0-0.07,0c-2.07,0-3.94-0.84-5.3-2.19v0.02
		c-2.51-2.51-6.57-2.51-9.08,0v-0.01c-1.36,1.35-3.23,2.19-5.3,2.19c-4.15,0-7.52-3.36-7.52-7.52c0-2.07,0.84-3.94,2.19-5.3h-0.01
		c2.5-2.5,2.51-6.55,0.02-9.06c-2.51-2.5-6.57-2.5-9.07,0.01v-0.01c-1.36,1.35-3.23,2.19-5.3,2.19c-4.15,0-7.52-3.36-7.52-7.52
		s3.37-7.52,7.52-7.52c2.07,0,3.94,0.84,5.3,2.19v-0.01c1.71,1.71,4.15,2.25,6.32,1.63c-1.53-4.88-6.06-8.42-11.43-8.48
		c-0.06,0-0.13,0.01-0.19,0.01c-2.07,0-3.94-0.84-5.3-2.19v0.02c-2.51-2.51-6.58-2.51-9.08,0v-0.01c-1.36,1.35-3.23,2.19-5.3,2.19
		c-4.15,0-7.51-3.37-7.51-7.52c0-4.15,3.36-7.52,7.51-7.52c2.07,0,3.94,0.84,5.3,2.19v-0.01c2.51,2.51,6.58,2.51,9.08,0v0.02
		c1.36-1.35,3.24-2.19,5.3-2.19c4.15,0,7.52,3.36,7.52,7.52c0,0.02,0,0.04,0,0.06l0.02-0.02c0,6.69,5.42,12.1,12.1,12.1l-0.04,0.04
		c0.03,0,0.06,0,0.09,0c4.15,0,7.51,3.36,7.51,7.52c0,2.07-0.84,3.94-2.19,5.3h0.01c-2.5,2.5-2.5,6.55-0.02,9.06
		c2.51,2.5,6.57,2.49,9.07-0.01V385c1.36-1.35,3.23-2.19,5.3-2.19c4.15,0,7.52,3.36,7.52,7.52c0,0.03,0,0.05,0,0.07l0.01-0.01
		c0,6.68,5.42,12.1,12.1,12.1l-0.01,0.01c0.02,0,0.05,0,0.07,0c2.07,0,3.95,0.84,5.3,2.19v-0.01c2.51,2.51,6.58,2.51,9.08,0v0.01
		c1.36-1.35,3.23-2.19,5.3-2.19c2.07,0,3.94,0.84,5.3,2.19v-0.01c2.51,2.51,6.58,2.51,9.08,0v0.01c1.36-1.35,3.23-2.19,5.3-2.19
		c4.15,0,7.51,3.36,7.51,7.52c0,0.03,0,0.05,0,0.07l0.01-0.01c0,6.68,5.42,12.1,12.1,12.1l-0.01,0.01c0.03,0,0.05,0,0.07,0
		c2.07,0,3.94,0.84,5.3,2.19v-0.01c2.51,2.51,6.58,2.51,9.08,0v0.01c1.36-1.35,3.23-2.19,5.3-2.19c4.15,0,7.52,3.37,7.52,7.52
		c0,0.02,0,0.05,0,0.07l0.01-0.01c0,5.41,3.56,10,8.46,11.55c0.61-2.17,0.07-4.6-1.63-6.3h0.01c-1.36-1.36-2.19-3.23-2.19-5.3
		c0-4.15,3.36-7.52,7.52-7.52c2.07,0,3.94,0.84,5.3,2.19v-0.02c2.51,2.51,6.58,2.51,9.08,0v0.01c1.36-1.35,3.23-2.19,5.3-2.19
		c4.15,0,7.52,3.37,7.52,7.52c0,4.15-3.36,7.51-7.52,7.51c-2.07,0-3.94-0.84-5.3-2.19v0.02c-2.5-2.5-6.56-2.51-9.07-0.02
		c-2.48,2.5-2.48,6.53-0.01,9.04c2.51,2.5,6.57,2.5,9.07-0.01v0.02c1.36-1.36,3.23-2.19,5.3-2.19c0.02,0,0.05,0,0.07,0l-0.01-0.01
		c6.68,0,12.1-5.42,12.1-12.1l0.01,0.01c0-0.02,0-0.05,0-0.07c0-4.15,3.36-7.52,7.52-7.52c4.15,0,7.52,3.37,7.52,7.52
		c0,0.02,0,0.05,0,0.07l0.01-0.01c0,6.69,5.42,12.1,12.11,12.1l-0.01,0.01c0.02,0,0.05,0,0.07,0c4.15,0,7.52,3.36,7.52,7.52
		c0,0.03-0.01,0.05-0.01,0.07l0.01-0.01c0,6.68,5.42,12.1,12.1,12.1l-0.01,0.01c0.02,0,0.05,0,0.07,0c2.07,0,3.94,0.84,5.3,2.19
		v-0.02c2.51,2.51,6.57,2.51,9.08,0v0.02c1.36-1.35,3.24-2.19,5.3-2.19c4.15,0,7.51,3.37,7.51,7.52c0,0.02,0,0.05,0,0.07l0.01-0.01
		c0,6.68,5.42,12.1,12.1,12.1l-0.01,0.01c0.03,0,0.05,0,0.07,0c4.15,0,7.52,3.36,7.52,7.51c0,4.15-3.36,7.52-7.52,7.52
		c-0.02,0-0.05,0-0.07,0L1892.8,496.29z"/>
</g>
<path class="st2" d="M73.8,644.14c-1.14,5.82-3.42,10.25-6.85,13.3S58.98,662,53.35,662c-2.41,0-4.59-0.36-6.55-1.09
	c-1.95-0.73-3.63-1.76-5.01-3.1c-1.39-1.34-2.45-2.99-3.2-4.94c-0.75-1.95-1.12-4.16-1.12-6.61c0-0.77,0.04-1.59,0.14-2.45
	c0.09-0.86,0.23-1.75,0.41-2.66l5.79-29.93h5.39l-5.93,30.68c-0.27,1.5-0.41,2.91-0.41,4.23c0,3.41,0.95,6.1,2.86,8.08
	c1.91,1.98,4.77,2.97,8.59,2.97c3.91,0,7.02-1.09,9.34-3.27c2.32-2.18,3.95-5.77,4.91-10.77l6.27-31.91h5.39L73.8,644.14z"/>
<path class="st2" d="M99.43,637.25H99.3c-2.05,0-3.72,0.34-5.01,1.03c-1.3,0.68-2.58,1.8-3.85,3.34l-3.75,19.57H81.3l5.59-28.64H92
	l-0.95,4.77c1.18-1.68,2.56-2.99,4.12-3.92c1.57-0.93,3.31-1.4,5.22-1.4L99.43,637.25z"/>
<path class="st2" d="M131.34,643.73c0,2.41-0.41,4.7-1.23,6.89c-0.82,2.18-1.94,4.09-3.37,5.73c-1.43,1.63-3.1,2.94-5.01,3.92
	c-1.91,0.98-3.95,1.47-6.13,1.47c-1.5,0-2.89-0.24-4.16-0.72c-1.27-0.48-2.43-1.13-3.48-1.94l-0.41,2.11h-5.18l9.68-49.97h5.39
	l-4.5,23.32c1.05-0.77,2.23-1.39,3.54-1.84c1.32-0.45,2.77-0.68,4.36-0.68c1.64,0,3.11,0.32,4.43,0.95c1.32,0.64,2.42,1.5,3.31,2.59
	c0.89,1.09,1.57,2.34,2.05,3.75C131.1,640.7,131.34,642.18,131.34,643.73z M126.09,644.55c0-2.41-0.65-4.33-1.94-5.76
	c-1.3-1.43-3.06-2.15-5.28-2.15c-1.27,0-2.51,0.26-3.72,0.78c-1.21,0.52-2.26,1.2-3.17,2.01l-3,15.48c1.68,1.55,3.82,2.32,6.41,2.32
	c1.5,0,2.9-0.32,4.19-0.96c1.3-0.63,2.43-1.52,3.41-2.66c0.98-1.13,1.74-2.48,2.28-4.02C125.81,648.05,126.09,646.36,126.09,644.55z
	"/>
<path class="st2" d="M161.88,641.21c0,1.14-0.14,2.43-0.41,3.88l-3.21,16.09h-4.98l0.55-2.86c-1.18,1.05-2.43,1.88-3.75,2.49
	c-1.32,0.62-2.89,0.92-4.7,0.92c-1.09,0-2.16-0.18-3.2-0.55c-1.05-0.36-1.98-0.91-2.8-1.64c-0.82-0.73-1.47-1.6-1.94-2.62
	c-0.48-1.02-0.71-2.21-0.71-3.58s0.27-2.63,0.82-3.82c0.55-1.18,1.32-2.21,2.32-3.1c1-0.89,2.21-1.58,3.65-2.08
	c1.43-0.5,3.03-0.75,4.81-0.75c1.68,0,3.18,0.22,4.5,0.65c1.32,0.43,2.39,0.94,3.2,1.53l0.34-1.77c0.05-0.23,0.1-0.57,0.17-1.02
	c0.07-0.45,0.1-0.86,0.1-1.23c0-1.41-0.45-2.59-1.36-3.55c-0.91-0.96-2.27-1.43-4.09-1.43c-1.05,0-2.21,0.14-3.48,0.41
	c-1.27,0.27-2.57,0.66-3.89,1.16l-0.48-4.77c1.36-0.45,2.77-0.83,4.23-1.13c1.45-0.3,2.91-0.44,4.36-0.44
	c1.36,0,2.65,0.15,3.85,0.44c1.2,0.3,2.26,0.81,3.17,1.53c0.91,0.73,1.62,1.68,2.15,2.86C161.62,638.03,161.88,639.48,161.88,641.21
	z M155.2,650.07c-0.77-0.68-1.77-1.24-3-1.67c-1.23-0.43-2.57-0.65-4.02-0.65c-1.82,0-3.34,0.48-4.57,1.43
	c-1.23,0.95-1.84,2.23-1.84,3.82c0,1.32,0.43,2.39,1.3,3.21c0.86,0.82,2.16,1.23,3.89,1.23c1.54,0,2.91-0.33,4.09-0.99
	c1.18-0.66,2.32-1.51,3.41-2.56L155.2,650.07z"/>
<path class="st2" d="M195.49,639.5c0,1-0.09,1.96-0.27,2.86l-3.68,18.82h-5.39l3.54-18c0.09-0.45,0.16-0.87,0.21-1.26
	c0.04-0.39,0.07-0.76,0.07-1.13c0-2.86-1.45-4.29-4.36-4.29c-1.59,0-3.15,0.48-4.67,1.43c-1.52,0.96-2.94,2.09-4.26,3.41
	l-3.82,19.84h-5.39l5.59-28.64h5.11l-0.95,4.77c1.77-1.59,3.62-2.87,5.56-3.85c1.93-0.97,3.85-1.46,5.76-1.46
	c2.41,0,4.17,0.7,5.28,2.11C194.93,635.52,195.49,637.32,195.49,639.5z"/>
<path class="st2" d="M255.01,661.18h-5.39l4.43-22.91h-25.57l-4.5,22.91h-5.39l9.75-49.97h5.39l-4.3,22.16h25.57l4.36-22.16h5.39
	L255.01,661.18z"/>
<path class="st2" d="M280.37,661.73c-1.68,0-3.28-0.22-4.81-0.65c-1.52-0.43-2.86-1.11-4.02-2.05c-1.16-0.93-2.08-2.14-2.76-3.61
	c-0.68-1.48-1.02-3.28-1.02-5.42c0-2.14,0.4-4.28,1.19-6.44c0.8-2.16,1.9-4.09,3.31-5.8c1.41-1.7,3.09-3.09,5.04-4.16
	c1.95-1.07,4.11-1.6,6.48-1.6c1.73,0,3.25,0.31,4.57,0.92c1.32,0.62,2.42,1.45,3.31,2.49c0.89,1.05,1.55,2.25,1.98,3.61
	c0.43,1.36,0.65,2.8,0.65,4.3c0,0.77-0.06,1.52-0.17,2.25c-0.11,0.73-0.28,1.48-0.51,2.25h-20.66c-0.05,0.23-0.07,0.48-0.07,0.75
	c0,0.27,0,0.59,0,0.96c0,2.64,0.74,4.57,2.22,5.8c1.48,1.23,3.44,1.84,5.9,1.84c2.14,0,4.59-0.5,7.36-1.5l0.89,4.36
	c-1.36,0.55-2.67,0.97-3.92,1.26C284.06,661.58,282.41,661.73,280.37,661.73z M289.09,643.8c0.04-0.23,0.07-0.45,0.07-0.68
	s0-0.45,0-0.68c-0.05-1.73-0.58-3.14-1.6-4.23c-1.02-1.09-2.44-1.64-4.26-1.64c-2,0-3.82,0.67-5.45,2.01
	c-1.64,1.34-2.91,3.08-3.82,5.22H289.09z"/>
<path class="st2" d="M324.2,641.21c0,1.14-0.14,2.43-0.41,3.88l-3.21,16.09h-4.98l0.55-2.86c-1.18,1.05-2.43,1.88-3.75,2.49
	c-1.32,0.62-2.89,0.92-4.7,0.92c-1.09,0-2.16-0.18-3.2-0.55c-1.05-0.36-1.98-0.91-2.8-1.64c-0.82-0.73-1.47-1.6-1.94-2.62
	c-0.48-1.02-0.71-2.21-0.71-3.58s0.27-2.63,0.82-3.82c0.55-1.18,1.32-2.21,2.32-3.1c1-0.89,2.21-1.58,3.65-2.08
	c1.43-0.5,3.03-0.75,4.81-0.75c1.68,0,3.18,0.22,4.5,0.65c1.32,0.43,2.39,0.94,3.2,1.53l0.34-1.77c0.05-0.23,0.1-0.57,0.17-1.02
	c0.07-0.45,0.1-0.86,0.1-1.23c0-1.41-0.45-2.59-1.36-3.55c-0.91-0.96-2.27-1.43-4.09-1.43c-1.05,0-2.21,0.14-3.48,0.41
	c-1.27,0.27-2.57,0.66-3.89,1.16l-0.48-4.77c1.36-0.45,2.77-0.83,4.23-1.13c1.45-0.3,2.91-0.44,4.36-0.44
	c1.36,0,2.65,0.15,3.85,0.44c1.2,0.3,2.26,0.81,3.17,1.53c0.91,0.73,1.62,1.68,2.15,2.86C323.94,638.03,324.2,639.48,324.2,641.21z
	 M317.52,650.07c-0.77-0.68-1.77-1.24-3-1.67c-1.23-0.43-2.57-0.65-4.02-0.65c-1.82,0-3.34,0.48-4.57,1.43
	c-1.23,0.95-1.84,2.23-1.84,3.82c0,1.32,0.43,2.39,1.3,3.21c0.86,0.82,2.16,1.23,3.89,1.23c1.54,0,2.91-0.33,4.09-0.99
	c1.18-0.66,2.32-1.51,3.41-2.56L317.52,650.07z"/>
<path class="st2" d="M335.52,661.18h-5.39l9.68-49.97h5.39L335.52,661.18z"/>
<path class="st2" d="M364.63,637.18h-7.98l-3.14,16.09c-0.05,0.23-0.08,0.44-0.1,0.65c-0.02,0.21-0.03,0.42-0.03,0.65
	c0,1.64,1.34,2.45,4.02,2.45c0.55,0,1.07-0.02,1.57-0.07c0.5-0.04,1-0.11,1.5-0.21l-0.89,4.43c-0.77,0.18-1.52,0.32-2.25,0.41
	c-0.73,0.09-1.45,0.14-2.18,0.14c-2.32,0-4.06-0.54-5.22-1.6c-1.16-1.07-1.74-2.62-1.74-4.67c0-0.73,0.07-1.5,0.21-2.32l3.14-15.95
	h-5.18v-0.48l6.14-4.7l1.16-5.8l5.59-2.11l-1.7,8.45h7.98L364.63,637.18z"/>
<path class="st2" d="M395.45,639.5c0,1-0.09,1.96-0.27,2.86l-3.68,18.82h-5.39l3.54-18c0.09-0.45,0.16-0.87,0.21-1.26
	c0.04-0.39,0.07-0.76,0.07-1.13c0-2.86-1.45-4.29-4.36-4.29c-1.59,0-3.15,0.48-4.67,1.43c-1.52,0.96-2.94,2.09-4.26,3.41
	l-3.82,19.84h-5.39l9.68-49.97h5.39l-5.04,25.91c1.77-1.63,3.58-2.9,5.42-3.78c1.84-0.89,3.72-1.33,5.63-1.33
	c2.41,0,4.17,0.7,5.28,2.11C394.89,635.52,395.45,637.32,395.45,639.5z"/>
<path class="st2" d="M455.71,661.93l-0.75,0.21l-23.52-39.2l-7.5,38.25h-5.39l9.88-50.65l1.09-0.27l23.32,38.59l7.36-37.63h5.39
	L455.71,661.93z"/>
<path class="st2" d="M481.21,661.73c-1.68,0-3.28-0.22-4.81-0.65c-1.52-0.43-2.86-1.11-4.02-2.05c-1.16-0.93-2.08-2.14-2.76-3.61
	c-0.68-1.48-1.02-3.28-1.02-5.42c0-2.14,0.4-4.28,1.19-6.44c0.8-2.16,1.9-4.09,3.31-5.8c1.41-1.7,3.09-3.09,5.04-4.16
	c1.95-1.07,4.11-1.6,6.48-1.6c1.73,0,3.25,0.31,4.57,0.92c1.32,0.62,2.42,1.45,3.31,2.49c0.89,1.05,1.55,2.25,1.98,3.61
	c0.43,1.36,0.65,2.8,0.65,4.3c0,0.77-0.06,1.52-0.17,2.25c-0.11,0.73-0.28,1.48-0.51,2.25h-20.66c-0.05,0.23-0.07,0.48-0.07,0.75
	c0,0.27,0,0.59,0,0.96c0,2.64,0.74,4.57,2.22,5.8c1.48,1.23,3.44,1.84,5.9,1.84c2.14,0,4.59-0.5,7.36-1.5l0.89,4.36
	c-1.36,0.55-2.67,0.97-3.92,1.26C484.9,661.58,483.25,661.73,481.21,661.73z M489.94,643.8c0.04-0.23,0.07-0.45,0.07-0.68
	s0-0.45,0-0.68c-0.05-1.73-0.58-3.14-1.6-4.23c-1.02-1.09-2.44-1.64-4.26-1.64c-2,0-3.82,0.67-5.45,2.01
	c-1.64,1.34-2.91,3.08-3.82,5.22H489.94z"/>
<path class="st2" d="M518.98,637.18H511l-3.14,16.09c-0.05,0.23-0.08,0.44-0.1,0.65c-0.02,0.21-0.03,0.42-0.03,0.65
	c0,1.64,1.34,2.45,4.02,2.45c0.55,0,1.07-0.02,1.57-0.07c0.5-0.04,1-0.11,1.5-0.21l-0.89,4.43c-0.77,0.18-1.52,0.32-2.25,0.41
	c-0.73,0.09-1.45,0.14-2.18,0.14c-2.32,0-4.06-0.54-5.22-1.6c-1.16-1.07-1.74-2.62-1.74-4.67c0-0.73,0.07-1.5,0.21-2.32l3.14-15.95
	h-5.18v-0.48l6.14-4.7l1.16-5.8l5.59-2.11l-1.7,8.45h7.98L518.98,637.18z"/>
<path class="st2" d="M547.68,661.93h-0.89l-4.84-19.3l-12.41,19.3h-0.89l-4.5-29.39h5.32l2.25,18.68l11.59-18.82h0.89l4.43,18.82
	l9-18.68h5.66L547.68,661.93z"/>
<path class="st2" d="M592.61,643.73c0,2.36-0.49,4.75-1.47,7.16c-0.98,2.41-2.35,4.5-4.13,6.27c-1.32,1.32-2.86,2.41-4.63,3.27
	c-1.77,0.86-3.73,1.3-5.86,1.3c-1.64,0-3.15-0.28-4.53-0.85c-1.39-0.57-2.57-1.36-3.54-2.39c-0.98-1.02-1.74-2.25-2.28-3.68
	c-0.55-1.43-0.82-3.04-0.82-4.81c0-2.36,0.49-4.75,1.47-7.16c0.98-2.41,2.35-4.5,4.12-6.27c1.32-1.32,2.86-2.41,4.64-3.27
	c1.77-0.86,3.73-1.29,5.86-1.29c1.64,0,3.15,0.27,4.53,0.82c1.39,0.55,2.57,1.33,3.54,2.35c0.98,1.02,1.74,2.26,2.28,3.72
	C592.33,640.34,592.61,641.95,592.61,643.73z M587.49,644c0-2.23-0.57-4.02-1.7-5.39c-1.14-1.37-2.77-2.05-4.91-2.05
	c-1.18,0-2.33,0.27-3.44,0.82c-1.11,0.54-2.12,1.27-3.03,2.18c-1.18,1.18-2.14,2.68-2.86,4.5c-0.73,1.82-1.09,3.71-1.09,5.66
	c0,2.23,0.57,4.02,1.7,5.39c1.14,1.36,2.77,2.04,4.91,2.04c1.18,0,2.33-0.27,3.44-0.82c1.11-0.55,2.12-1.27,3.03-2.18
	c1.18-1.18,2.14-2.68,2.86-4.5C587.13,647.84,587.49,645.95,587.49,644z"/>
<path class="st2" d="M615.99,637.25h-0.14c-2.05,0-3.72,0.34-5.01,1.03c-1.3,0.68-2.58,1.8-3.85,3.34l-3.75,19.57h-5.39l5.59-28.64
	h5.11l-0.95,4.77c1.18-1.68,2.56-2.99,4.12-3.92c1.57-0.93,3.31-1.4,5.22-1.4L615.99,637.25z"/>
<path class="st2" d="M632.35,646.39l10.7,14.79h-5.93L627.04,647l-2.73,14.18h-5.39l9.68-49.97h5.39l-6.61,34.02l13.64-12.68h6.89
	L632.35,646.39z"/>
<path class="st2" d="M688.39,616.32c-0.91-0.23-1.77-0.34-2.59-0.34c-1.09,0-1.97,0.11-2.62,0.34c-0.66,0.23-1.21,0.62-1.64,1.19
	c-0.43,0.57-0.8,1.38-1.09,2.42c-0.3,1.04-0.6,2.39-0.92,4.02l-1.71,8.59h7.16l-0.95,4.64h-7.09l-7.5,38.72h-5.25l7.57-38.72h-5.25
	v-0.48l6.2-4.7l1.5-7.36c0.5-2.41,1.07-4.48,1.7-6.21c0.64-1.73,1.41-3.15,2.32-4.26c0.91-1.11,2-1.93,3.27-2.45
	c1.27-0.52,2.77-0.79,4.5-0.79c0.86,0,1.6,0.05,2.22,0.14s1.31,0.25,2.08,0.48L688.39,616.32z"/>
<path class="st2" d="M714.23,643.73c0,2.36-0.49,4.75-1.47,7.16c-0.98,2.41-2.35,4.5-4.13,6.27c-1.32,1.32-2.86,2.41-4.63,3.27
	c-1.77,0.86-3.73,1.3-5.86,1.3c-1.64,0-3.15-0.28-4.53-0.85c-1.39-0.57-2.57-1.36-3.54-2.39c-0.98-1.02-1.74-2.25-2.28-3.68
	c-0.55-1.43-0.82-3.04-0.82-4.81c0-2.36,0.49-4.75,1.47-7.16c0.98-2.41,2.35-4.5,4.12-6.27c1.32-1.32,2.86-2.41,4.64-3.27
	c1.77-0.86,3.73-1.29,5.86-1.29c1.64,0,3.15,0.27,4.53,0.82c1.39,0.55,2.57,1.33,3.54,2.35c0.98,1.02,1.74,2.26,2.28,3.72
	C713.96,640.34,714.23,641.95,714.23,643.73z M709.12,644c0-2.23-0.57-4.02-1.7-5.39c-1.14-1.37-2.77-2.05-4.91-2.05
	c-1.18,0-2.33,0.27-3.44,0.82c-1.11,0.54-2.12,1.27-3.03,2.18c-1.18,1.18-2.14,2.68-2.86,4.5c-0.73,1.82-1.09,3.71-1.09,5.66
	c0,2.23,0.57,4.02,1.7,5.39s2.77,2.04,4.91,2.04c1.18,0,2.33-0.27,3.44-0.82c1.11-0.55,2.12-1.27,3.03-2.18
	c1.18-1.18,2.14-2.68,2.86-4.5C708.75,647.84,709.12,645.95,709.12,644z"/>
<path class="st2" d="M737.61,637.25h-0.14c-2.05,0-3.72,0.34-5.01,1.03c-1.3,0.68-2.58,1.8-3.85,3.34l-3.75,19.57h-5.39l5.59-28.64
	h5.11l-0.95,4.77c1.18-1.68,2.56-2.99,4.12-3.92c1.57-0.93,3.31-1.4,5.22-1.4L737.61,637.25z"/>
<path class="st2" d="M786.36,661.18h-27.95l9.75-49.97h5.39l-8.79,45.06h22.57L786.36,661.18z"/>
<path class="st2" d="M819.56,641.21c0,1.14-0.14,2.43-0.41,3.88l-3.21,16.09h-4.98l0.55-2.86c-1.18,1.05-2.43,1.88-3.75,2.49
	c-1.32,0.62-2.89,0.92-4.7,0.92c-1.09,0-2.16-0.18-3.2-0.55c-1.05-0.36-1.98-0.91-2.8-1.64c-0.82-0.73-1.47-1.6-1.94-2.62
	c-0.48-1.02-0.71-2.21-0.71-3.58s0.27-2.63,0.82-3.82c0.55-1.18,1.32-2.21,2.32-3.1c1-0.89,2.21-1.58,3.65-2.08
	c1.43-0.5,3.03-0.75,4.81-0.75c1.68,0,3.18,0.22,4.5,0.65c1.32,0.43,2.39,0.94,3.2,1.53l0.34-1.77c0.05-0.23,0.1-0.57,0.17-1.02
	c0.07-0.45,0.1-0.86,0.1-1.23c0-1.41-0.45-2.59-1.36-3.55c-0.91-0.96-2.27-1.43-4.09-1.43c-1.05,0-2.21,0.14-3.48,0.41
	c-1.27,0.27-2.57,0.66-3.89,1.16l-0.48-4.77c1.36-0.45,2.77-0.83,4.23-1.13s2.91-0.44,4.36-0.44c1.36,0,2.65,0.15,3.85,0.44
	c1.2,0.3,2.26,0.81,3.17,1.53c0.91,0.73,1.62,1.68,2.15,2.86C819.3,638.03,819.56,639.48,819.56,641.21z M812.88,650.07
	c-0.77-0.68-1.77-1.24-3-1.67c-1.23-0.43-2.57-0.65-4.02-0.65c-1.82,0-3.34,0.48-4.57,1.43c-1.23,0.95-1.84,2.23-1.84,3.82
	c0,1.32,0.43,2.39,1.3,3.21c0.86,0.82,2.16,1.23,3.89,1.23c1.54,0,2.91-0.33,4.09-0.99c1.18-0.66,2.32-1.51,3.41-2.56L812.88,650.07
	z"/>
<path class="st2" d="M844.3,637.18h-7.98l-3.14,16.09c-0.05,0.23-0.08,0.44-0.1,0.65c-0.02,0.21-0.03,0.42-0.03,0.65
	c0,1.64,1.34,2.45,4.02,2.45c0.55,0,1.07-0.02,1.57-0.07c0.5-0.04,1-0.11,1.5-0.21l-0.89,4.43c-0.77,0.18-1.52,0.32-2.25,0.41
	c-0.73,0.09-1.45,0.14-2.18,0.14c-2.32,0-4.06-0.54-5.22-1.6c-1.16-1.07-1.74-2.62-1.74-4.67c0-0.73,0.07-1.5,0.21-2.32l3.14-15.95
	h-5.18v-0.48l6.14-4.7l1.16-5.8l5.59-2.11l-1.7,8.45h7.98L844.3,637.18z"/>
<path class="st2" d="M852.83,661.18h-5.39l5.59-28.64h5.39L852.83,661.18z M861.01,622.73c0,0.91-0.33,1.69-0.99,2.35
	c-0.66,0.66-1.44,0.99-2.35,0.99c-0.95,0-1.76-0.33-2.42-0.99c-0.66-0.66-0.99-1.44-0.99-2.35s0.33-1.7,0.99-2.39
	c0.66-0.68,1.47-1.02,2.42-1.02c0.91,0,1.69,0.34,2.35,1.02C860.68,621.03,861.01,621.82,861.01,622.73z"/>
<path class="st2" d="M890.8,639.5c0,1-0.09,1.96-0.27,2.86l-3.68,18.82h-5.39l3.54-18c0.09-0.45,0.16-0.87,0.21-1.26
	c0.04-0.39,0.07-0.76,0.07-1.13c0-2.86-1.45-4.29-4.36-4.29c-1.59,0-3.15,0.48-4.67,1.43c-1.52,0.96-2.94,2.09-4.26,3.41
	l-3.82,19.84h-5.39l5.59-28.64h5.11l-0.95,4.77c1.77-1.59,3.62-2.87,5.56-3.85c1.93-0.97,3.85-1.46,5.76-1.46
	c2.41,0,4.17,0.7,5.28,2.11C890.24,635.52,890.8,637.32,890.8,639.5z"/>
<path class="st2" d="M947.52,661.18l-2.93-13.84h-21.54l-8.45,13.84h-5.79l31.7-50.86h0.82l12,50.86H947.52z M939,621.3
	l-13.16,21.48h17.73L939,621.3z"/>
<path class="st2" d="M1006.02,639.5c0,1-0.09,1.96-0.27,2.86l-3.61,18.82h-5.39l3.48-18c0.09-0.45,0.16-0.87,0.21-1.26
	c0.04-0.39,0.07-0.76,0.07-1.13c0-2.86-1.48-4.29-4.43-4.29c-1.59,0-3.11,0.47-4.57,1.4s-2.84,2.06-4.16,3.37l-3.89,19.91h-5.39
	l3.61-18c0.09-0.45,0.16-0.87,0.21-1.26c0.04-0.39,0.07-0.76,0.07-1.13c0-2.86-1.46-4.29-4.36-4.29c-1.59,0-3.14,0.48-4.64,1.43
	c-1.5,0.96-2.91,2.09-4.23,3.41l-3.82,19.84h-5.39l5.59-28.64h5.11l-0.95,4.77c1.77-1.59,3.58-2.87,5.42-3.85
	c1.84-0.97,3.72-1.46,5.63-1.46c1.91,0,3.45,0.49,4.63,1.46c1.18,0.98,1.91,2.28,2.18,3.92c1.82-1.68,3.81-3,5.97-3.96
	c2.16-0.95,4.15-1.43,5.96-1.43c2.41,0,4.17,0.7,5.28,2.11C1005.46,635.52,1006.02,637.32,1006.02,639.5z"/>
<path class="st2" d="M1025.31,661.73c-1.68,0-3.28-0.22-4.81-0.65c-1.52-0.43-2.86-1.11-4.02-2.05c-1.16-0.93-2.08-2.14-2.76-3.61
	c-0.68-1.48-1.02-3.28-1.02-5.42c0-2.14,0.4-4.28,1.19-6.44c0.8-2.16,1.9-4.09,3.31-5.8c1.41-1.7,3.09-3.09,5.04-4.16
	c1.95-1.07,4.11-1.6,6.48-1.6c1.73,0,3.25,0.31,4.57,0.92c1.32,0.62,2.42,1.45,3.31,2.49c0.89,1.05,1.55,2.25,1.98,3.61
	c0.43,1.36,0.65,2.8,0.65,4.3c0,0.77-0.06,1.52-0.17,2.25c-0.11,0.73-0.28,1.48-0.51,2.25h-20.66c-0.05,0.23-0.07,0.48-0.07,0.75
	c0,0.27,0,0.59,0,0.96c0,2.64,0.74,4.57,2.22,5.8c1.48,1.23,3.44,1.84,5.9,1.84c2.14,0,4.59-0.5,7.36-1.5l0.89,4.36
	c-1.36,0.55-2.67,0.97-3.92,1.26C1029,661.58,1027.36,661.73,1025.31,661.73z M1034.04,643.8c0.04-0.23,0.07-0.45,0.07-0.68
	s0-0.45,0-0.68c-0.05-1.73-0.58-3.14-1.6-4.23c-1.02-1.09-2.44-1.64-4.26-1.64c-2,0-3.82,0.67-5.45,2.01
	c-1.64,1.34-2.91,3.08-3.82,5.22H1034.04z"/>
<path class="st2" d="M1062.06,637.25h-0.14c-2.05,0-3.72,0.34-5.01,1.03c-1.3,0.68-2.58,1.8-3.85,3.34l-3.75,19.57h-5.39l5.59-28.64
	h5.11l-0.95,4.77c1.18-1.68,2.56-2.99,4.12-3.92c1.57-0.93,3.31-1.4,5.22-1.4L1062.06,637.25z"/>
<path class="st2" d="M1070.71,661.18h-5.39l5.59-28.64h5.39L1070.71,661.18z M1078.9,622.73c0,0.91-0.33,1.69-0.99,2.35
	c-0.66,0.66-1.44,0.99-2.35,0.99c-0.95,0-1.76-0.33-2.42-0.99c-0.66-0.66-0.99-1.44-0.99-2.35s0.33-1.7,0.99-2.39
	c0.66-0.68,1.47-1.02,2.42-1.02c0.91,0,1.69,0.34,2.35,1.02C1078.56,621.03,1078.9,621.82,1078.9,622.73z"/>
<path class="st2" d="M1105.55,638.89c-1.05-0.68-2.18-1.24-3.41-1.67c-1.23-0.43-2.57-0.65-4.02-0.65c-1.55,0-2.98,0.33-4.3,0.99
	c-1.32,0.66-2.46,1.56-3.44,2.69c-0.98,1.14-1.74,2.45-2.28,3.92c-0.55,1.48-0.82,3.03-0.82,4.67c0,1.36,0.24,2.57,0.72,3.61
	c0.48,1.05,1.12,1.92,1.94,2.62c0.82,0.71,1.76,1.23,2.83,1.57c1.07,0.34,2.19,0.51,3.38,0.51c1.14,0,2.28-0.12,3.44-0.38
	c1.16-0.25,2.21-0.62,3.17-1.12l0.89,4.22c-1.45,0.59-2.84,1.05-4.16,1.37c-1.32,0.32-2.82,0.48-4.5,0.48
	c-1.55,0-3.08-0.26-4.6-0.79c-1.52-0.52-2.9-1.31-4.12-2.35c-1.23-1.04-2.21-2.36-2.97-3.95c-0.75-1.59-1.12-3.45-1.12-5.59
	c0-2.14,0.41-4.23,1.23-6.27c0.82-2.05,1.98-3.86,3.48-5.46c1.5-1.59,3.28-2.87,5.35-3.85c2.07-0.97,4.33-1.46,6.78-1.46
	c1.77,0,3.43,0.29,4.98,0.88c1.54,0.59,2.91,1.3,4.09,2.11L1105.55,638.89z"/>
<path class="st2" d="M1135.82,641.21c0,1.14-0.14,2.43-0.41,3.88l-3.2,16.09h-4.98l0.55-2.86c-1.18,1.05-2.43,1.88-3.75,2.49
	c-1.32,0.62-2.89,0.92-4.7,0.92c-1.09,0-2.16-0.18-3.21-0.55c-1.05-0.36-1.98-0.91-2.8-1.64c-0.82-0.73-1.47-1.6-1.94-2.62
	c-0.48-1.02-0.72-2.21-0.72-3.58s0.27-2.63,0.82-3.82c0.55-1.18,1.32-2.21,2.32-3.1c1-0.89,2.22-1.58,3.65-2.08
	c1.43-0.5,3.04-0.75,4.81-0.75c1.68,0,3.18,0.22,4.5,0.65c1.32,0.43,2.39,0.94,3.21,1.53l0.34-1.77c0.04-0.23,0.1-0.57,0.17-1.02
	c0.07-0.45,0.1-0.86,0.1-1.23c0-1.41-0.45-2.59-1.36-3.55c-0.91-0.96-2.27-1.43-4.09-1.43c-1.04,0-2.21,0.14-3.48,0.41
	c-1.27,0.27-2.57,0.66-3.88,1.16l-0.48-4.77c1.37-0.45,2.77-0.83,4.23-1.13s2.91-0.44,4.36-0.44c1.36,0,2.65,0.15,3.85,0.44
	c1.2,0.3,2.26,0.81,3.17,1.53c0.91,0.73,1.62,1.68,2.15,2.86C1135.56,638.03,1135.82,639.48,1135.82,641.21z M1129.14,650.07
	c-0.77-0.68-1.77-1.24-3-1.67c-1.22-0.43-2.57-0.65-4.02-0.65c-1.82,0-3.34,0.48-4.57,1.43c-1.23,0.95-1.84,2.23-1.84,3.82
	c0,1.32,0.43,2.39,1.3,3.21c0.86,0.82,2.16,1.23,3.89,1.23c1.54,0,2.91-0.33,4.09-0.99c1.18-0.66,2.32-1.51,3.41-2.56
	L1129.14,650.07z"/>
<path class="st2" d="M1183.14,641.21c0,1.14-0.14,2.43-0.41,3.88l-3.2,16.09h-4.98l0.55-2.86c-1.18,1.05-2.43,1.88-3.75,2.49
	c-1.32,0.62-2.89,0.92-4.7,0.92c-1.09,0-2.16-0.18-3.21-0.55c-1.05-0.36-1.98-0.91-2.8-1.64c-0.82-0.73-1.47-1.6-1.94-2.62
	c-0.48-1.02-0.72-2.21-0.72-3.58s0.27-2.63,0.82-3.82c0.55-1.18,1.32-2.21,2.32-3.1c1-0.89,2.22-1.58,3.65-2.08
	c1.43-0.5,3.04-0.75,4.81-0.75c1.68,0,3.18,0.22,4.5,0.65c1.32,0.43,2.39,0.94,3.21,1.53l0.34-1.77c0.04-0.23,0.1-0.57,0.17-1.02
	c0.07-0.45,0.1-0.86,0.1-1.23c0-1.41-0.45-2.59-1.36-3.55c-0.91-0.96-2.27-1.43-4.09-1.43c-1.04,0-2.21,0.14-3.48,0.41
	c-1.27,0.27-2.57,0.66-3.88,1.16l-0.48-4.77c1.37-0.45,2.77-0.83,4.23-1.13s2.91-0.44,4.36-0.44c1.36,0,2.65,0.15,3.85,0.44
	c1.2,0.3,2.26,0.81,3.17,1.53c0.91,0.73,1.62,1.68,2.15,2.86C1182.87,638.03,1183.14,639.48,1183.14,641.21z M1176.45,650.07
	c-0.77-0.68-1.77-1.24-3-1.67c-1.22-0.43-2.57-0.65-4.02-0.65c-1.82,0-3.34,0.48-4.57,1.43c-1.23,0.95-1.84,2.23-1.84,3.82
	c0,1.32,0.43,2.39,1.3,3.21c0.86,0.82,2.16,1.23,3.89,1.23c1.54,0,2.91-0.33,4.09-0.99c1.18-0.66,2.32-1.51,3.41-2.56
	L1176.45,650.07z"/>
<path class="st2" d="M1216.74,639.5c0,1-0.09,1.96-0.27,2.86l-3.68,18.82h-5.39l3.55-18c0.09-0.45,0.16-0.87,0.21-1.26
	c0.04-0.39,0.07-0.76,0.07-1.13c0-2.86-1.46-4.29-4.36-4.29c-1.59,0-3.15,0.48-4.67,1.43c-1.52,0.96-2.94,2.09-4.26,3.41
	l-3.82,19.84h-5.39l5.59-28.64h5.11l-0.95,4.77c1.77-1.59,3.62-2.87,5.56-3.85c1.93-0.97,3.85-1.46,5.76-1.46
	c2.41,0,4.17,0.7,5.28,2.11C1216.19,635.52,1216.74,637.32,1216.74,639.5z"/>
<path class="st2" d="M1246.47,661.18h-5.04l0.41-2.11c-1.05,0.77-2.19,1.41-3.44,1.91c-1.25,0.5-2.67,0.75-4.26,0.75
	c-1.41,0-2.79-0.31-4.12-0.92c-1.34-0.61-2.51-1.45-3.51-2.52c-1-1.07-1.81-2.34-2.42-3.82c-0.62-1.48-0.92-3.08-0.92-4.81
	c0-2.36,0.4-4.61,1.19-6.75s1.91-4.01,3.34-5.63c1.43-1.61,3.14-2.9,5.11-3.85c1.97-0.95,4.15-1.43,6.51-1.43
	c1.45,0,2.8,0.21,4.02,0.65s2.25,0.92,3.07,1.46l4.36-22.91h5.39L1246.47,661.18z M1245.52,638.68c-0.86-0.68-1.83-1.21-2.9-1.6
	c-1.07-0.38-2.24-0.58-3.51-0.58c-1.5,0-2.91,0.3-4.22,0.89c-1.32,0.59-2.45,1.42-3.41,2.49c-0.95,1.07-1.7,2.35-2.25,3.85
	c-0.55,1.5-0.82,3.16-0.82,4.98c0,2.68,0.67,4.75,2.01,6.2c1.34,1.45,3.17,2.18,5.49,2.18c1.36,0,2.54-0.19,3.55-0.58
	c1-0.38,1.98-0.99,2.93-1.81L1245.52,638.68z"/>
<path class="st2" d="M1291.74,637.18h-7.98l-3.14,16.09c-0.05,0.23-0.08,0.44-0.1,0.65s-0.03,0.42-0.03,0.65
	c0,1.64,1.34,2.45,4.02,2.45c0.55,0,1.07-0.02,1.57-0.07c0.5-0.04,1-0.11,1.5-0.21l-0.89,4.43c-0.77,0.18-1.52,0.32-2.25,0.41
	c-0.73,0.09-1.46,0.14-2.18,0.14c-2.32,0-4.06-0.54-5.22-1.6c-1.16-1.07-1.74-2.62-1.74-4.67c0-0.73,0.07-1.5,0.21-2.32l3.14-15.95
	h-5.18v-0.48l6.13-4.7l1.16-5.8l5.59-2.11l-1.71,8.45h7.98L1291.74,637.18z"/>
<path class="st2" d="M1322.55,639.5c0,1-0.09,1.96-0.27,2.86l-3.68,18.82h-5.39l3.55-18c0.09-0.45,0.16-0.87,0.21-1.26
	c0.04-0.39,0.07-0.76,0.07-1.13c0-2.86-1.46-4.29-4.36-4.29c-1.59,0-3.15,0.48-4.67,1.43c-1.52,0.96-2.94,2.09-4.26,3.41
	l-3.82,19.84h-5.39l9.68-49.97h5.39l-5.04,25.91c1.77-1.63,3.58-2.9,5.42-3.78c1.84-0.89,3.72-1.33,5.63-1.33
	c2.41,0,4.17,0.7,5.28,2.11C1322,635.52,1322.55,637.32,1322.55,639.5z"/>
<path class="st2" d="M1341.78,661.73c-1.68,0-3.28-0.22-4.81-0.65c-1.52-0.43-2.86-1.11-4.02-2.05c-1.16-0.93-2.08-2.14-2.76-3.61
	c-0.68-1.48-1.02-3.28-1.02-5.42c0-2.14,0.4-4.28,1.19-6.44c0.8-2.16,1.9-4.09,3.31-5.8c1.41-1.7,3.09-3.09,5.04-4.16
	c1.95-1.07,4.11-1.6,6.48-1.6c1.73,0,3.25,0.31,4.57,0.92c1.32,0.62,2.42,1.45,3.31,2.49c0.89,1.05,1.54,2.25,1.98,3.61
	s0.65,2.8,0.65,4.3c0,0.77-0.06,1.52-0.17,2.25c-0.12,0.73-0.29,1.48-0.51,2.25h-20.66c-0.04,0.23-0.07,0.48-0.07,0.75
	c0,0.27,0,0.59,0,0.96c0,2.64,0.74,4.57,2.21,5.8c1.48,1.23,3.44,1.84,5.9,1.84c2.14,0,4.59-0.5,7.36-1.5l0.89,4.36
	c-1.37,0.55-2.67,0.97-3.92,1.26C1345.47,661.58,1343.83,661.73,1341.78,661.73z M1350.51,643.8c0.05-0.23,0.07-0.45,0.07-0.68
	s0-0.45,0-0.68c-0.05-1.73-0.58-3.14-1.6-4.23c-1.02-1.09-2.44-1.64-4.26-1.64c-2,0-3.82,0.67-5.45,2.01
	c-1.64,1.34-2.91,3.08-3.82,5.22H1350.51z"/>
<path class="st2" d="M1422.16,619.8c-1.59-1.27-3.58-2.34-5.97-3.21c-2.39-0.86-4.97-1.3-7.74-1.3c-3.18,0-6.13,0.65-8.83,1.94
	c-2.7,1.3-5.04,3.04-7.02,5.22c-1.98,2.18-3.54,4.72-4.67,7.6s-1.7,5.94-1.7,9.17c0,2.77,0.44,5.26,1.33,7.46
	c0.89,2.21,2.1,4.08,3.65,5.63c1.54,1.55,3.35,2.74,5.42,3.58c2.07,0.84,4.28,1.26,6.65,1.26c2.64,0,5.06-0.41,7.26-1.23
	c2.2-0.82,4.33-1.82,6.37-3l2.11,4.36c-2.55,1.59-5.13,2.77-7.74,3.55c-2.61,0.77-5.51,1.16-8.69,1.16c-2.82,0-5.55-0.52-8.18-1.57
	c-2.64-1.04-4.98-2.53-7.02-4.46c-2.04-1.93-3.68-4.26-4.91-6.99s-1.84-5.8-1.84-9.2c0-4.27,0.82-8.2,2.45-11.79
	c1.64-3.59,3.78-6.69,6.44-9.31c2.66-2.61,5.72-4.65,9.17-6.1c3.45-1.45,6.98-2.18,10.57-2.18c1.59,0,3.14,0.15,4.63,0.44
	c1.5,0.3,2.92,0.68,4.26,1.16c1.34,0.48,2.59,1.03,3.75,1.64c1.16,0.62,2.15,1.24,2.97,1.87L1422.16,619.8z"/>
<path class="st2" d="M1451.41,641.21c0,1.14-0.14,2.43-0.41,3.88l-3.2,16.09h-4.98l0.55-2.86c-1.18,1.05-2.43,1.88-3.75,2.49
	c-1.32,0.62-2.89,0.92-4.7,0.92c-1.09,0-2.16-0.18-3.21-0.55c-1.05-0.36-1.98-0.91-2.8-1.64c-0.82-0.73-1.47-1.6-1.94-2.62
	c-0.48-1.02-0.72-2.21-0.72-3.58s0.27-2.63,0.82-3.82c0.55-1.18,1.32-2.21,2.32-3.1c1-0.89,2.22-1.58,3.65-2.08
	c1.43-0.5,3.04-0.75,4.81-0.75c1.68,0,3.18,0.22,4.5,0.65c1.32,0.43,2.39,0.94,3.21,1.53l0.34-1.77c0.04-0.23,0.1-0.57,0.17-1.02
	c0.07-0.45,0.1-0.86,0.1-1.23c0-1.41-0.45-2.59-1.36-3.55c-0.91-0.96-2.27-1.43-4.09-1.43c-1.04,0-2.21,0.14-3.48,0.41
	c-1.27,0.27-2.57,0.66-3.88,1.16l-0.48-4.77c1.37-0.45,2.77-0.83,4.23-1.13s2.91-0.44,4.36-0.44c1.36,0,2.65,0.15,3.85,0.44
	c1.2,0.3,2.26,0.81,3.17,1.53c0.91,0.73,1.62,1.68,2.15,2.86C1451.15,638.03,1451.41,639.48,1451.41,641.21z M1444.73,650.07
	c-0.77-0.68-1.77-1.24-3-1.67c-1.22-0.43-2.57-0.65-4.02-0.65c-1.82,0-3.34,0.48-4.57,1.43c-1.23,0.95-1.84,2.23-1.84,3.82
	c0,1.32,0.43,2.39,1.3,3.21c0.86,0.82,2.16,1.23,3.89,1.23c1.54,0,2.91-0.33,4.09-0.99c1.18-0.66,2.32-1.51,3.41-2.56
	L1444.73,650.07z"/>
<path class="st2" d="M1475.13,637.25h-0.14c-2.04,0-3.71,0.34-5.01,1.03c-1.29,0.68-2.58,1.8-3.85,3.34l-3.75,19.57H1457l5.59-28.64
	h5.11l-0.95,4.77c1.18-1.68,2.56-2.99,4.12-3.92c1.57-0.93,3.31-1.4,5.22-1.4L1475.13,637.25z"/>
<path class="st2" d="M1483.79,661.18h-5.39l5.59-28.64h5.39L1483.79,661.18z M1491.97,622.73c0,0.91-0.33,1.69-0.99,2.35
	c-0.66,0.66-1.45,0.99-2.35,0.99c-0.95,0-1.76-0.33-2.42-0.99c-0.66-0.66-0.99-1.44-0.99-2.35s0.33-1.7,0.99-2.39
	c0.66-0.68,1.47-1.02,2.42-1.02c0.91,0,1.69,0.34,2.35,1.02C1491.64,621.03,1491.97,621.82,1491.97,622.73z"/>
<path class="st2" d="M1522.72,643.73c0,2.41-0.41,4.7-1.23,6.89c-0.82,2.18-1.94,4.09-3.37,5.73c-1.43,1.63-3.1,2.94-5.01,3.92
	c-1.91,0.98-3.96,1.47-6.14,1.47c-1.5,0-2.89-0.24-4.16-0.72c-1.27-0.48-2.43-1.13-3.48-1.94l-0.41,2.11h-5.18l9.68-49.97h5.39
	l-4.5,23.32c1.04-0.77,2.23-1.39,3.55-1.84c1.32-0.45,2.77-0.68,4.36-0.68c1.63,0,3.11,0.32,4.43,0.95c1.32,0.64,2.42,1.5,3.31,2.59
	c0.89,1.09,1.57,2.34,2.04,3.75C1522.48,640.7,1522.72,642.18,1522.72,643.73z M1517.47,644.55c0-2.41-0.65-4.33-1.94-5.76
	c-1.3-1.43-3.06-2.15-5.28-2.15c-1.27,0-2.51,0.26-3.72,0.78c-1.21,0.52-2.26,1.2-3.17,2.01l-3,15.48c1.68,1.55,3.82,2.32,6.41,2.32
	c1.5,0,2.9-0.32,4.19-0.96c1.29-0.63,2.43-1.52,3.41-2.66c0.98-1.13,1.74-2.48,2.28-4.02
	C1517.2,648.05,1517.47,646.36,1517.47,644.55z"/>
<path class="st2" d="M1556.28,643.73c0,2.41-0.41,4.7-1.23,6.89c-0.82,2.18-1.94,4.09-3.37,5.73c-1.43,1.63-3.1,2.94-5.01,3.92
	c-1.91,0.98-3.96,1.47-6.14,1.47c-1.5,0-2.89-0.24-4.16-0.72c-1.27-0.48-2.43-1.13-3.48-1.94l-0.41,2.11h-5.18l9.68-49.97h5.39
	l-4.5,23.32c1.04-0.77,2.23-1.39,3.55-1.84c1.32-0.45,2.77-0.68,4.36-0.68c1.63,0,3.11,0.32,4.43,0.95s2.42,1.5,3.31,2.59
	c0.89,1.09,1.57,2.34,2.04,3.75C1556.04,640.7,1556.28,642.18,1556.28,643.73z M1551.03,644.55c0-2.41-0.65-4.33-1.94-5.76
	c-1.3-1.43-3.06-2.15-5.28-2.15c-1.27,0-2.51,0.26-3.72,0.78c-1.21,0.52-2.26,1.2-3.17,2.01l-3,15.48c1.68,1.55,3.82,2.32,6.41,2.32
	c1.5,0,2.9-0.32,4.19-0.96c1.29-0.63,2.43-1.52,3.41-2.66c0.98-1.13,1.74-2.48,2.28-4.02
	C1550.76,648.05,1551.03,646.36,1551.03,644.55z"/>
<g>
	<path class="st2" d="M1575.58,661.73c-1.68,0-3.28-0.22-4.81-0.65c-1.52-0.43-2.86-1.11-4.02-2.05c-1.16-0.93-2.08-2.14-2.76-3.61
		c-0.68-1.48-1.02-3.28-1.02-5.42c0-2.14,0.4-4.28,1.19-6.44c0.8-2.16,1.9-4.09,3.31-5.8c1.41-1.7,3.09-3.09,5.04-4.16
		c1.95-1.07,4.11-1.6,6.48-1.6c1.73,0,3.25,0.31,4.57,0.92c1.32,0.62,2.42,1.45,3.31,2.49c0.89,1.05,1.54,2.25,1.98,3.61
		s0.65,2.8,0.65,4.3c0,0.77-0.06,1.52-0.17,2.25c-0.12,0.73-0.29,1.48-0.51,2.25h-20.66c-0.04,0.23-0.07,0.48-0.07,0.75
		c0,0.27,0,0.59,0,0.96c0,2.64,0.74,4.57,2.21,5.8c1.48,1.23,3.44,1.84,5.9,1.84c2.14,0,4.59-0.5,7.36-1.5l0.89,4.36
		c-1.37,0.55-2.67,0.97-3.92,1.26C1579.27,661.58,1577.62,661.73,1575.58,661.73z M1584.3,643.8c0.05-0.23,0.07-0.45,0.07-0.68
		s0-0.45,0-0.68c-0.05-1.73-0.58-3.14-1.6-4.23c-1.02-1.09-2.44-1.64-4.26-1.64c-2,0-3.82,0.67-5.45,2.01
		c-1.64,1.34-2.91,3.08-3.82,5.22H1584.3z"/>
	<path class="st2" d="M1619.41,641.21c0,1.14-0.14,2.43-0.41,3.88l-3.2,16.09h-4.98l0.55-2.86c-1.18,1.05-2.43,1.88-3.75,2.49
		c-1.32,0.62-2.89,0.92-4.7,0.92c-1.09,0-2.16-0.18-3.21-0.55c-1.05-0.36-1.98-0.91-2.8-1.64c-0.82-0.73-1.47-1.6-1.94-2.62
		c-0.48-1.02-0.72-2.21-0.72-3.58s0.27-2.63,0.82-3.82c0.55-1.18,1.32-2.21,2.32-3.1c1-0.89,2.22-1.58,3.65-2.08
		c1.43-0.5,3.04-0.75,4.81-0.75c1.68,0,3.18,0.22,4.5,0.65c1.32,0.43,2.39,0.94,3.21,1.53l0.34-1.77c0.04-0.23,0.1-0.57,0.17-1.02
		c0.07-0.45,0.1-0.86,0.1-1.23c0-1.41-0.45-2.59-1.36-3.55c-0.91-0.96-2.27-1.43-4.09-1.43c-1.04,0-2.21,0.14-3.48,0.41
		c-1.27,0.27-2.57,0.66-3.88,1.16l-0.48-4.77c1.37-0.45,2.77-0.83,4.23-1.13s2.91-0.44,4.36-0.44c1.36,0,2.65,0.15,3.85,0.44
		c1.2,0.3,2.26,0.81,3.17,1.53c0.91,0.73,1.62,1.68,2.15,2.86C1619.15,638.03,1619.41,639.48,1619.41,641.21z M1612.73,650.07
		c-0.77-0.68-1.77-1.24-3-1.67c-1.22-0.43-2.57-0.65-4.02-0.65c-1.82,0-3.34,0.48-4.57,1.43c-1.23,0.95-1.84,2.23-1.84,3.82
		c0,1.32,0.43,2.39,1.3,3.21c0.86,0.82,2.16,1.23,3.89,1.23c1.54,0,2.91-0.33,4.09-0.99c1.18-0.66,2.32-1.51,3.41-2.56
		L1612.73,650.07z"/>
	<path class="st2" d="M1653.02,639.5c0,1-0.09,1.96-0.27,2.86l-3.68,18.82h-5.39l3.55-18c0.09-0.45,0.16-0.87,0.21-1.26
		c0.04-0.39,0.07-0.76,0.07-1.13c0-2.86-1.46-4.29-4.36-4.29c-1.59,0-3.15,0.48-4.67,1.43c-1.52,0.96-2.94,2.09-4.26,3.41
		l-3.82,19.84H1625l5.59-28.64h5.11l-0.95,4.77c1.77-1.59,3.62-2.87,5.56-3.85c1.93-0.97,3.85-1.46,5.76-1.46
		c2.41,0,4.17,0.7,5.28,2.11C1652.46,635.52,1653.02,637.32,1653.02,639.5z"/>
</g>
<g>
	<path class="st2" d="M41.74,566.97V453.55h26.31v89.44h45.49v23.98H41.74z"/>
	<path class="st2" d="M210.1,566.97l-8.51-20.58h-39.15l-8.51,20.58h-26.77l53.38-114.35h3.56l53.38,114.35H210.1z M182.09,499.04
		l-11.3,27.23h22.44L182.09,499.04z"/>
	<path class="st2" d="M336.83,558.31c-4.95,3.3-10.65,5.88-17.1,7.74c-6.45,1.86-12.92,2.78-19.42,2.78
		c-9.28,0-17.72-1.47-25.3-4.41c-7.58-2.94-14.11-7.01-19.57-12.23c-5.47-5.21-9.7-11.4-12.69-18.57
		c-2.99-7.17-4.49-14.93-4.49-23.29c0-8.46,1.49-16.27,4.49-23.44c2.99-7.17,7.22-13.36,12.69-18.57
		c5.47-5.21,11.99-9.28,19.57-12.22c7.58-2.94,16.01-4.41,25.3-4.41c6.6,0,12.87,0.9,18.8,2.71c5.93,1.81,11.48,4.21,16.64,7.2
		l-8.05,22.28c-4.23-2.37-8.64-4.23-13.23-5.57c-4.59-1.34-9.21-2.01-13.85-2.01c-5.26,0-10.03,0.77-14.31,2.32
		c-4.28,1.55-7.89,3.79-10.83,6.73c-2.94,2.94-5.21,6.52-6.81,10.75c-1.6,4.23-2.4,8.98-2.4,14.24c0,5.26,0.8,9.98,2.4,14.16
		c1.6,4.18,3.87,7.74,6.81,10.68c2.94,2.94,6.55,5.21,10.83,6.81c4.28,1.6,9.05,2.4,14.31,2.4c4.64,0,9.44-0.72,14.39-2.17
		c4.95-1.44,9.59-3.5,13.93-6.19L336.83,558.31z"/>
	<path class="st2" d="M358.34,520.94v-19.49h39.77v19.49H358.34z"/>
	<path class="st2" d="M521.91,520.86c0,15.78-4.28,27.73-12.84,35.82c-8.56,8.1-20.48,12.15-35.75,12.15
		c-15.37,0-27.13-4.02-35.28-12.07c-8.15-8.05-12.22-20.01-12.22-35.9v-67.31h26.31V519c0,8.05,1.75,14.37,5.26,18.96
		c3.51,4.59,9.03,6.89,16.56,6.89c7.43,0,12.9-2.3,16.4-6.89c3.51-4.59,5.26-10.91,5.26-18.96v-65.46h26.31V520.86z"/>
	<path class="st2" d="M605.15,566.97l-19.34-36.98c-0.83,0.1-1.57,0.15-2.24,0.15s-1.42,0-2.24,0c-1.96,0-3.61-0.02-4.95-0.08
		c-1.34-0.05-2.94-0.13-4.8-0.23v37.14h-26.31V454.63c4.85-0.51,9.96-0.95,15.32-1.32c5.36-0.36,11.4-0.54,18.1-0.54
		c8.87,0,16.4,0.98,22.59,2.94c6.19,1.96,11.27,4.64,15.24,8.05c3.97,3.41,6.86,7.4,8.67,11.99c1.8,4.59,2.71,9.46,2.71,14.62
		c0,6.81-1.7,13.08-5.11,18.8c-3.4,5.73-8.2,10.39-14.39,14l26.62,43.79H605.15z M600.51,491.31c0-4.74-1.7-8.43-5.11-11.06
		c-3.4-2.63-7.94-3.95-13.62-3.95c-2.07,0-3.82,0.05-5.26,0.15c-1.45,0.1-3.1,0.31-4.95,0.62v31.26c1.75,0.21,3.2,0.34,4.33,0.39
		c1.14,0.05,2.48,0.08,4.02,0.08c6.29,0,11.3-1.47,15.01-4.41C598.66,501.44,600.51,497.08,600.51,491.31z"/>
	<path class="st2" d="M739.78,534.79c0,4.44-1.06,8.67-3.17,12.69c-2.12,4.02-5.26,7.56-9.44,10.6c-4.18,3.04-9.44,5.47-15.78,7.27
		c-6.35,1.8-13.8,2.71-22.36,2.71c-4.95,0-10.44-0.21-16.48-0.62c-6.04-0.41-11.84-0.98-17.41-1.7v-110.8
		c2.06-0.31,4.43-0.62,7.12-0.93c2.68-0.31,5.47-0.56,8.36-0.77c2.89-0.21,5.75-0.39,8.59-0.54c2.84-0.15,5.39-0.23,7.66-0.23
		c8.25,0,15.47,0.85,21.66,2.55c6.19,1.7,11.37,3.97,15.55,6.81c4.18,2.84,7.3,6.09,9.36,9.75c2.06,3.66,3.1,7.45,3.1,11.37
		c0,5.99-1.62,11.01-4.88,15.09c-3.25,4.08-8.12,7.45-14.62,10.14c7.74,2.37,13.46,5.78,17.17,10.21
		C737.92,522.82,739.78,528.29,739.78,534.79z M709.45,487.75c0-3.41-1.42-6.32-4.26-8.74c-2.84-2.42-7.04-3.64-12.61-3.64
		c-2.37,0-4.49,0.1-6.35,0.31c-1.86,0.21-3.71,0.46-5.57,0.77v23.67c1.44,0.21,2.84,0.34,4.18,0.39c1.34,0.05,3.2,0.08,5.57,0.08
		c6.4,0,11.17-1.11,14.31-3.33C707.88,495.05,709.45,491.87,709.45,487.75z M711.31,532c0-4.33-1.7-7.68-5.11-10.06
		c-3.41-2.37-8.62-3.56-15.63-3.56c-3.92,0-7.22,0.15-9.9,0.46v26.31c1.86,0.21,3.48,0.34,4.87,0.39c1.39,0.05,3.43,0.08,6.11,0.08
		c6.7,0,11.66-1.19,14.86-3.56C709.7,539.69,711.31,536.34,711.31,532z"/>
	<path class="st2" d="M827.43,566.97l-8.51-20.58h-39.15l-8.51,20.58h-26.77l53.38-114.35h3.56l53.38,114.35H827.43z M799.42,499.04
		l-11.3,27.23h22.44L799.42,499.04z"/>
	<path class="st2" d="M964.46,569.14l-68.4-61.43v59.27h-26.31V452l3.56-0.62l67.47,60.97v-58.8h26.3v115.13L964.46,569.14z"/>
	<path class="st2" d="M1099.7,566.97v-45.49h-43.64v45.49h-26.31V453.55h26.31v44.41h43.64v-44.41h26.31v113.43H1099.7z"/>
	<path class="st2" d="M1150.77,566.97V453.55h71.8v24.14h-45.49v20.27h41.47v22.9h-41.47v22.13h45.49v23.98H1150.77z"/>
	<path class="st2" d="M1320.98,566.97l-8.51-20.58h-39.15l-8.51,20.58h-26.77l53.39-114.35h3.56l53.39,114.35H1320.98z
		 M1292.98,499.04l-11.3,27.23h22.44L1292.98,499.04z"/>
	<path class="st2" d="M1362.3,566.97V453.55h26.3v89.44h45.49v23.98H1362.3z"/>
	<path class="st2" d="M1494.91,477.69v89.29h-26.3v-89.29h-34.04v-24.14h94.39v24.14H1494.91z"/>
	<path class="st2" d="M1621.33,566.97v-45.49h-43.64v45.49h-26.3V453.55h26.3v44.41h43.64v-44.41h26.31v113.43H1621.33z"/>
</g>
</svg>
