<?xml version="1.0" encoding="utf-8"?>
<!-- Generator: Adobe Illustrator 26.0.1, SVG Export Plug-In . SVG Version: 6.00 Build 0)  -->
<svg version="1.1" id="Layer_1" xmlns="http://www.w3.org/2000/svg" xmlns:xlink="http://www.w3.org/1999/xlink" x="0px" y="0px"
	 viewBox="0 0 800 800" style="enable-background:new 0 0 800 800;" xml:space="preserve">
<style type="text/css">
	.st0{fill:#303C57;}
	.st1{fill:#FFFFFF;}
	.st2{fill-rule:evenodd;clip-rule:evenodd;fill:#FFFFFF;}
	.st3{fill-rule:evenodd;clip-rule:evenodd;fill:#303C57;}
	.st4{fill:none;}
</style>
<rect x="304.45" y="149.31" class="st1" width="8.86" height="14.55"/>
<rect x="211.15" y="153.41" class="st1" width="46.4" height="9.13"/>
<rect x="712.49" y="154.57" class="st1" width="13.28" height="11.29"/>
<path class="st0" d="M475.65,183.12v-16.99l-4.58,16.99L475.65,183.12v-16.99h11v-18.99h12.11l3.39-9.87
	c23.26-5.98,45.67-5.91,68.9,0.21l2.53,9.66l13.94,0.15v19.18l11.08-0.33v16.99h10l4.43,17.17l42.08,13.19l22.2,26l-0.46,118.78
	l24.12,0l-0.58-227.41h27.24l3.59,5.92l44.79,52.15l-0.55,488.09H22.77l2.04-521.7l68.73-22.09l76.1,22.09l-2.12,256.92h30.36
	l0.93-234.03l5.83-45.24l59.4,0.05l0.25,186.22l26.38-0.06l-0.29-169.9l13.04-14.88h54.93l1.53,261.9h24.12v-263.3l34.42,9.44
	l30.15,8.27l-0.82,85.57h22.76l0.53-53.14"/>
<path class="st1" d="M109.29,443.01v-20.38c0-9.15-5.2-12.48-12.27-12.48c-7.07,0-12.27,3.33-12.27,12.48v9.98
	c0,7.49,2.49,10.81,9.36,14.77l17.05,9.57c13.93,7.9,22.25,14.35,22.25,29.95v21.01c0,22.46-13.93,30.36-35.98,30.36h-0.42
	c-22.05,0-35.98-7.69-35.98-30.36v-25.37h23.71v22.04c0,8.94,5.2,12.9,12.48,12.9c7.28,0,12.48-3.95,12.48-12.9v-11.44
	c0-7.49-2.29-11.23-9.57-15.18l-16.85-9.57c-14.14-8.11-22.25-14.77-22.25-29.95V419.3c0-21.63,15.81-29.95,35.77-29.95h0.42
	c19.97,0,35.77,8.32,35.77,29.95v23.71H109.29z"/>
<path class="st1" d="M196.01,504.16H169.4l-5.2,32.44H140.9l27.04-145.58h30.36l27.45,145.58h-24.54L196.01,504.16z M192.9,484.19
	l-10.19-64.68l-10.19,64.68H192.9z"/>
<polygon class="st1" points="299.17,536.6 237.82,536.6 237.82,391.02 261.94,391.02 261.94,514.97 299.17,514.97 "/>
<path class="st1" d="M384.02,507.48c0,22.46-14.14,30.78-36.19,30.78H347c-22.05,0-36.19-8.11-36.19-30.78V391.02h24.12v112.72
	c0,10.4,4.58,13.31,12.48,13.31c7.9,0,12.48-2.91,12.48-13.31l-1.73-372.89h24.12L384.02,507.48z"/>
<path class="st1" d="M459.1,536.6l-18.51-58.02h-12.06v58.02H404.4V391.02h37.64c22.05,0,36.6,8.73,36.6,30.78v26
	c0,13.93-5.82,22.67-15.81,27.04l20.8,61.77H459.1z M428.53,457.78h12.69c7.9,0,13.31-2.91,13.31-13.31v-18.93
	c0-10.4-5.41-13.31-13.31-13.31h-12.69V457.78z"/>
<path class="st1" d="M554.97,460.9c12.69,2.08,17.05,11.85,17.05,23.08v23.92c0,18.3-14.14,28.7-36.19,28.7H498.2V391.02h38.06
	c22.05,0,34.94,10.4,34.94,28.7v18.3C571.2,448.42,566.62,459.44,554.97,460.9 M522.32,451.12h13.52c6.86,0,11.23-3.54,11.23-11.23
	v-16.85c0-7.69-4.37-11.23-11.23-11.23h-13.52V451.12z M536.67,471.5h-14.35v44.3h14.35c6.86,0,11.23-3.54,11.23-11.23v-21.84
	C547.9,475.04,543.53,471.5,536.67,471.5"/>
<path class="st1" d="M635.04,504.16h-26.62l-5.2,32.44h-23.29l27.04-145.58h30.36l27.45,145.58h-24.54L635.04,504.16z
	 M631.92,484.19l-10.19-64.68l-10.19,64.68H631.92z"/>
<polyline class="st1" points="700.97,122.99 700.97,514.97 738.2,514.97 738.2,536.6 676.84,536.6 676.84,122.99 "/>
<rect x="319.95" y="165.92" class="st1" width="8.86" height="14.55"/>
<rect x="299.46" y="192.18" class="st1" width="9.99" height="16.41"/>
<rect x="334.71" y="187.7" class="st1" width="8.86" height="14.55"/>
<rect x="299.46" y="216.48" class="st1" width="9.99" height="16.41"/>
<polygon class="st1" points="162.97,187.61 153.32,189.42 153.32,166.5 162.97,164.7 "/>
<polygon class="st1" points="146.39,225.3 136.74,227.11 136.74,204.19 146.39,202.38 "/>
<polygon class="st1" points="162.97,221.98 153.32,223.79 153.32,200.88 162.97,199.07 "/>
<polygon class="st1" points="146.39,258.77 136.74,260.58 136.74,237.66 146.39,235.85 "/>
<polygon class="st1" points="162.97,255.45 153.32,257.26 153.32,234.34 162.97,232.54 "/>
<polygon class="st1" points="128.89,196.36 119.24,198.16 119.24,175.25 128.89,173.44 "/>
<polygon class="st1" points="111.7,199.97 102.06,201.78 102.06,178.87 111.7,177.06 "/>
<polygon class="st1" points="113.36,232.24 103.71,234.04 103.71,211.13 113.36,209.32 "/>
<polygon class="st1" points="130.85,261.48 121.2,263.29 121.2,240.37 130.85,238.57 "/>
<polygon class="st1" points="113.66,265.1 104.02,266.91 104.02,243.99 113.66,242.18 "/>
<rect x="507.56" y="169.79" class="st1" width="17.81" height="37.24"/>
<rect x="547.11" y="169.79" class="st1" width="17.81" height="37.24"/>
<rect x="507.56" y="223.45" class="st1" width="17.81" height="37.24"/>
<rect x="547.11" y="223.45" class="st1" width="17.81" height="37.24"/>
<rect x="547.11" y="275.61" class="st1" width="17.81" height="37.24"/>
<polygon class="st1" points="146,289.52 136.36,291.33 136.36,268.42 146,266.61 "/>
<polygon class="st1" points="162.59,286.2 152.94,288.01 152.94,265.1 162.59,263.29 "/>
<polygon class="st1" points="130.46,292.23 120.82,294.04 120.82,271.13 130.46,269.32 "/>
<rect x="211.15" y="198.05" class="st1" width="46.4" height="9.13"/>
<rect x="299.87" y="239.53" class="st1" width="9.99" height="16.41"/>
<rect x="332.48" y="239.94" class="st1" width="9.99" height="16.41"/>
<rect x="712.49" y="167.5" class="st1" width="13.28" height="11.29"/>
<rect x="712.49" y="200.03" class="st1" width="13.28" height="11.29"/>
<rect x="712.49" y="216.63" class="st1" width="13.28" height="11.29"/>
<rect x="712.49" y="234.56" class="st1" width="13.28" height="11.29"/>
<g>
	<path class="st1" d="M83.87,579.48H78.9c0-4.73-2.57-6.94-6.16-6.94c-3.53,0-5.8,2.03-5.8,5.44c0,9.15,17.23,9.21,17.23,22.02
		c0,7-4.25,11.07-11.25,11.07c-6.88,0-11.49-4.25-11.49-12.03h4.97c0,5.09,2.75,7.24,6.58,7.24c3.59,0,6.22-1.97,6.22-6.04
		c0-9.75-17.23-9.93-17.23-22.26c0-5.92,3.77-10.23,10.77-10.23C79.32,567.76,83.87,572.01,83.87,579.48z"/>
	<path class="st1" d="M89.02,600.42v-13.4c0-7,3.47-10.47,8.74-10.47c4.01,0,6.46,2.33,7.24,3.89v-3.47h4.49v33.56h-4.49v-3.47
		c-0.78,1.56-3.23,3.95-7.24,3.95C92.37,611.01,89.02,607.43,89.02,600.42z M104.69,600.13v-12.98c0-4.31-2.09-6.52-5.44-6.52
		c-3.47,0-5.44,2.33-5.44,6.7v12.8c0,4.49,1.97,6.76,5.44,6.76C102.66,606.89,104.69,604.55,104.69,600.13z"/>
	<path class="st1" d="M115.88,576.97h4.85v23.75c0,3.89,2.21,5.92,5.5,5.92c3.17,0,5.44-2.03,5.44-5.92v-23.75h4.79v23.09
		c0,6.76-3.83,10.95-10.23,10.95c-6.52,0-10.35-4.19-10.35-10.95V576.97z M123.3,573.32l3.47-7.72h5.21l-4.85,7.72H123.3z"/>
	<path class="st1" d="M142.2,600.48v-13.46c0-6.88,3.35-10.47,8.8-10.47c3.95,0,6.04,2.03,6.82,3.59v-14.78h4.91v45.17h-4.49v-3.47
		c-0.96,1.74-2.99,3.95-7.24,3.95C145.56,611.01,142.2,607.43,142.2,600.48z M157.94,600.19v-13.04c0-4.25-2.09-6.46-5.44-6.46
		c-3.53,0-5.44,2.39-5.44,6.7v12.8c0,4.37,1.97,6.76,5.44,6.76C155.91,606.95,157.94,604.61,157.94,600.19z"/>
	<path class="st1" d="M189.47,595.34h-15.74v4.49c0,4.37,1.86,7.06,5.5,7.06c3.23,0,5.44-2.03,5.44-5.03v-1.08h4.79c0,0,0,0,0,0.54
		c0,5.33-3.53,9.69-10.23,9.69c-6.52,0-10.23-4.31-10.23-11.07v-12.68c0-6.52,3.71-10.77,10.23-10.77c6.4,0,10.23,4.25,10.23,10.77
		V595.34z M179.24,580.68c-3.23,0-5.5,2.03-5.5,5.92v5.21h10.95v-5.09C184.68,582.9,182.47,580.68,179.24,580.68z"/>
	<path class="st1" d="M206.16,568.36h5.03v30.87c0,4.61,2.81,6.88,6.34,6.88c3.35,0,6.4-2.09,6.4-6.88v-30.87h5.09v30.69
		c0,7.06-4.79,11.97-11.49,11.97c-6.7,0-11.37-4.91-11.37-11.97V568.36z"/>
	<path class="st1" d="M248.16,581.4h-0.66c-5.33,0-6.88,3.83-6.88,9.87v19.27h-4.79v-33.56h4.55v4.25c0.66-1.92,2.87-4.67,6.94-4.67
		c0.48,0,0.84,0.06,0.84,0.06V581.4z"/>
	<path class="st1" d="M258.15,607.07v3.47h-4.55v-45.17h4.79v14.84c0.72-1.62,2.93-3.65,6.94-3.65c5.5,0,8.79,3.59,8.79,10.47v13.46
		c0,6.94-3.29,10.53-8.79,10.53C261.15,611.01,259.11,608.98,258.15,607.07z M269.34,600.19v-12.86c0-4.25-1.97-6.7-5.5-6.7
		c-3.29,0-5.44,2.27-5.44,6.46v13.1c0,4.43,2.03,6.76,5.44,6.76C267.31,606.95,269.34,604.55,269.34,600.19z"/>
	<path class="st1" d="M279.75,600.42v-13.4c0-7,3.47-10.47,8.74-10.47c4.01,0,6.46,2.33,7.24,3.89v-3.47h4.49v33.56h-4.49v-3.47
		c-0.78,1.56-3.23,3.95-7.24,3.95C283.1,611.01,279.75,607.43,279.75,600.42z M295.43,600.13v-12.98c0-4.31-2.09-6.52-5.44-6.52
		c-3.47,0-5.44,2.33-5.44,6.7v12.8c0,4.49,1.97,6.76,5.44,6.76C293.39,606.89,295.43,604.55,295.43,600.13z"/>
	<path class="st1" d="M311.88,610.54h-4.79v-33.56h4.55v3.53c0.78-1.62,3.17-3.95,7.18-3.95c6.22,0,8.79,4.13,8.79,11.61v22.38
		h-4.79V588.4c0-5.02-0.9-7.78-5.5-7.78c-3.71,0-5.44,2.21-5.44,6.7V610.54z"/>
	<path class="st1" d="M333.48,600.42v-13.4c0-7,3.47-10.47,8.74-10.47c4.01,0,6.46,2.33,7.24,3.89v-3.47h4.49v33.56h-4.49v-3.47
		c-0.78,1.56-3.23,3.95-7.24,3.95C336.83,611.01,333.48,607.43,333.48,600.42z M349.15,600.13v-12.98c0-4.31-2.09-6.52-5.44-6.52
		c-3.47,0-5.44,2.33-5.44,6.7v12.8c0,4.49,1.97,6.76,5.44,6.76C347.12,606.89,349.15,604.55,349.15,600.13z"/>
	<path class="st1" d="M376.2,610.54h-4.79v-33.56h4.55v3.53c0.78-1.62,3.17-3.95,7.18-3.95c6.22,0,8.79,4.13,8.79,11.61v22.38h-4.79
		V588.4c0-5.02-0.9-7.78-5.5-7.78c-3.71,0-5.44,2.21-5.44,6.7V610.54z"/>
	<path class="st1" d="M397.8,600.42v-13.4c0-7,3.47-10.47,8.74-10.47c4.01,0,6.46,2.33,7.24,3.89v-3.47h4.49v33.56h-4.49v-3.47
		c-0.78,1.56-3.23,3.95-7.24,3.95C401.15,611.01,397.8,607.43,397.8,600.42z M413.47,600.13v-12.98c0-4.31-2.09-6.52-5.44-6.52
		c-3.47,0-5.44,2.33-5.44,6.7v12.8c0,4.49,1.97,6.76,5.44,6.76C411.44,606.89,413.47,604.55,413.47,600.13z"/>
	<path class="st1" d="M452.66,601.08h-12.21l-2.33,9.45h-5.15l10.89-42.18h5.5l10.71,42.18h-5.15L452.66,601.08z M441.47,596.66
		h10.23l-5.03-21.18L441.47,596.66z"/>
	<path class="st1" d="M468.93,610.54h-4.79v-33.56h4.55v2.93c0.72-1.2,2.45-3.35,6.04-3.35c2.93,0,5.44,1.44,6.7,4.25
		c0.96-2.09,3.41-4.25,7.06-4.25c5.32,0,7.42,3.95,7.42,10.95v23.03h-4.79v-23.57c0-3.95-0.9-6.1-4.01-6.1
		c-3.47,0-4.67,2.03-4.67,5.92v23.75h-4.79v-23.57c0-4.13-1.08-6.46-4.37-6.46c-2.69,0-4.37,1.91-4.37,5.68V610.54z"/>
	<path class="st1" d="M522.18,595.34h-15.73v4.49c0,4.37,1.85,7.06,5.5,7.06c3.23,0,5.44-2.03,5.44-5.03v-1.08h4.79c0,0,0,0,0,0.54
		c0,5.33-3.53,9.69-10.23,9.69c-6.52,0-10.23-4.31-10.23-11.07v-12.68c0-6.52,3.71-10.77,10.23-10.77c6.4,0,10.23,4.25,10.23,10.77
		V595.34z M511.95,580.68c-3.23,0-5.5,2.03-5.5,5.92v5.21h10.95v-5.09C517.39,582.9,515.18,580.68,511.95,580.68z M509.68,573.32
		l3.47-7.72h5.21l-4.85,7.72H509.68z"/>
	<path class="st1" d="M540.55,581.4h-0.66c-5.33,0-6.88,3.83-6.88,9.87v19.27h-4.79v-33.56h4.55v4.25c0.66-1.92,2.87-4.67,6.94-4.67
		c0.48,0,0.84,0.06,0.84,0.06V581.4z"/>
	<path class="st1" d="M548.27,573.08c-1.68,0-2.99-1.32-2.99-2.99s1.32-2.99,2.99-2.99s3.05,1.32,3.05,2.99
		S549.94,573.08,548.27,573.08z M550.66,610.54h-4.85v-33.56h4.85V610.54z"/>
	<path class="st1" d="M572.44,599.95h4.79c0,6.88-3.71,11.07-10.23,11.07s-10.23-4.19-10.23-10.95v-12.68
		c0-6.52,3.71-10.83,10.23-10.83c6.58,0,10.23,4.25,10.23,11.13h-4.79c0-4.37-1.73-6.7-5.44-6.7c-3.35,0-5.5,2.03-5.5,5.86v13.88
		c0,3.89,2.21,5.92,5.5,5.92C570.52,606.65,572.44,604.37,572.44,599.95z"/>
	<path class="st1" d="M582.43,600.42v-13.4c0-7,3.47-10.47,8.74-10.47c4.01,0,6.46,2.33,7.24,3.89v-3.47h4.49v33.56h-4.49v-3.47
		c-0.78,1.56-3.23,3.95-7.24,3.95C585.78,611.01,582.43,607.43,582.43,600.42z M598.1,600.13v-12.98c0-4.31-2.09-6.52-5.44-6.52
		c-3.47,0-5.44,2.33-5.44,6.7v12.8c0,4.49,1.97,6.76,5.44,6.76C596.07,606.89,598.1,604.55,598.1,600.13z"/>
	<path class="st1" d="M638.73,610.54h-17.89v-42.18h5.03v37.27h12.86V610.54z"/>
	<path class="st1" d="M640.88,600.42v-13.4c0-7,3.47-10.47,8.74-10.47c4.01,0,6.46,2.33,7.24,3.89v-3.47h4.49v33.56h-4.49v-3.47
		c-0.78,1.56-3.23,3.95-7.24,3.95C644.23,611.01,640.88,607.43,640.88,600.42z M656.56,600.13v-12.98c0-4.31-2.09-6.52-5.44-6.52
		c-3.47,0-5.44,2.33-5.44,6.7v12.8c0,4.49,1.97,6.76,5.44,6.76C654.53,606.89,656.56,604.55,656.56,600.13z"/>
	<path class="st1" d="M666.25,577.33c3.11,0,4.37-1.32,4.37-6.28h3.17v5.92h6.1v4.25h-6.1v16.15c0,6.64-0.12,9.03,4.25,9.15
		c0.66,0,1.44-0.06,1.97-0.06v4.31c-0.48,0.06-1.5,0.12-2.39,0.12c-7.78,0-8.62-4.49-8.62-11.91v-17.77h-2.75V577.33z"/>
	<path class="st1" d="M687.73,573.08c-1.68,0-2.99-1.32-2.99-2.99s1.32-2.99,2.99-2.99s3.05,1.32,3.05,2.99
		S689.41,573.08,687.73,573.08z M690.12,610.54h-4.85v-33.56h4.85V610.54z"/>
	<path class="st1" d="M701.61,610.54h-4.79v-33.56h4.55v3.53c0.78-1.62,3.17-3.95,7.18-3.95c6.22,0,8.79,4.13,8.79,11.61v22.38
		h-4.79V588.4c0-5.02-0.9-7.78-5.5-7.78c-3.71,0-5.44,2.21-5.44,6.7V610.54z"/>
	<path class="st1" d="M723.21,600.42v-13.4c0-7,3.47-10.47,8.74-10.47c4.01,0,6.46,2.33,7.24,3.89v-3.47h4.49v33.56h-4.49v-3.47
		c-0.78,1.56-3.23,3.95-7.24,3.95C726.56,611.01,723.21,607.43,723.21,600.42z M738.88,600.13v-12.98c0-4.31-2.09-6.52-5.44-6.52
		c-3.47,0-5.44,2.33-5.44,6.7v12.8c0,4.49,1.97,6.76,5.44,6.76C736.85,606.89,738.88,604.55,738.88,600.13z"/>
</g>
</svg>
