<?xml version="1.0" encoding="utf-8"?>
<!-- Generator: Adobe Illustrator 26.0.1, SVG Export Plug-In . SVG Version: 6.00 Build 0)  -->
<svg version="1.1" id="Layer_1" xmlns="http://www.w3.org/2000/svg" xmlns:xlink="http://www.w3.org/1999/xlink" x="0px" y="0px"
	 viewBox="0 100 800 600" style="enable-background:new 0 0 800 800;" xml:space="preserve">
<style type="text/css">
	.st0{fill:#303C57;}
	.st1{fill:#FFFFFF;}
	.st2{fill-rule:evenodd;clip-rule:evenodd;fill:#FFFFFF;}
	.st3{fill-rule:evenodd;clip-rule:evenodd;fill:#303C57;}
	.st4{fill:none;}
</style>
<rect x="305.06" y="148.25" class="st1" width="8.86" height="14.55"/>
<rect x="211.76" y="152.35" class="st1" width="46.4" height="9.13"/>
<rect x="713.1" y="153.51" class="st1" width="13.28" height="11.29"/>
<path d="M476.26,182.05v-16.99l-4.58,16.99L476.26,182.05v-16.99h11v-18.99h12.11l3.39-9.87c23.26-5.98,45.67-5.91,68.9,0.21
	l2.53,9.66l13.94,0.15v19.18l11.08-0.33v16.99h10l4.43,17.17l42.08,13.19l22.2,26l-0.46,118.78l24.12,0l-0.58-227.41h27.24
	l3.59,5.92l44.79,52.15l-0.55,488.09H23.38l2.04-521.7l68.73-22.09l76.1,22.09l-2.12,256.92h30.36l0.93-234.03l5.83-45.24l59.4,0.05
	l0.25,186.22l26.38-0.06L291,148.2l13.04-14.88h54.93l1.53,261.9h24.12v-263.3l34.42,9.44l30.15,8.27l-0.82,85.57h22.76l0.53-53.14"
	/>
<path class="st1" d="M109.9,441.94v-20.38c0-9.15-5.2-12.48-12.27-12.48c-7.07,0-12.27,3.33-12.27,12.48v9.98
	c0,7.49,2.49,10.81,9.36,14.77l17.05,9.57c13.93,7.9,22.25,14.35,22.25,29.95v21.01c0,22.46-13.93,30.36-35.98,30.36h-0.42
	c-22.05,0-35.98-7.69-35.98-30.36v-25.37h23.71v22.04c0,8.94,5.2,12.9,12.48,12.9c7.28,0,12.48-3.95,12.48-12.9v-11.44
	c0-7.49-2.29-11.23-9.57-15.18l-16.85-9.57c-14.14-8.11-22.25-14.77-22.25-29.95v-19.13c0-21.63,15.81-29.95,35.77-29.95h0.42
	c19.97,0,35.77,8.32,35.77,29.95v23.71H109.9z"/>
<path class="st1" d="M196.62,503.09H170l-5.2,32.44h-23.29l27.04-145.58h30.36l27.45,145.58h-24.54L196.62,503.09z M193.51,483.12
	l-10.19-64.68l-10.19,64.68H193.51z"/>
<polygon class="st1" points="299.78,535.53 238.42,535.53 238.42,389.95 262.55,389.95 262.55,513.9 299.78,513.9 "/>
<path class="st1" d="M384.63,506.42c0,22.46-14.14,30.78-36.19,30.78h-0.83c-22.05,0-36.19-8.11-36.19-30.78V389.95h24.12v112.72
	c0,10.4,4.58,13.31,12.48,13.31c7.9,0,12.48-2.91,12.48-13.31l-1.73-372.89h24.12L384.63,506.42z"/>
<path class="st1" d="M459.71,535.53l-18.51-58.02h-12.06v58.02h-24.13V389.95h37.64c22.05,0,36.6,8.73,36.6,30.78v26
	c0,13.93-5.82,22.67-15.81,27.04l20.8,61.77H459.71z M429.14,456.71h12.69c7.9,0,13.31-2.91,13.31-13.31v-18.93
	c0-10.4-5.41-13.31-13.31-13.31h-12.69V456.71z"/>
<path class="st1" d="M555.58,459.83c12.69,2.08,17.05,11.85,17.05,23.08v23.92c0,18.3-14.14,28.7-36.19,28.7H498.8V389.95h38.06
	c22.05,0,34.94,10.4,34.94,28.7v18.3C571.8,447.35,567.23,458.37,555.58,459.83 M522.93,450.05h13.52c6.86,0,11.23-3.54,11.23-11.23
	v-16.85c0-7.69-4.37-11.23-11.23-11.23h-13.52V450.05z M537.28,470.44h-14.35v44.3h14.35c6.86,0,11.23-3.54,11.23-11.23v-21.84
	C548.51,473.97,544.14,470.44,537.28,470.44"/>
<path class="st1" d="M635.65,503.09h-26.62l-5.2,32.44h-23.29l27.04-145.58h30.36l27.45,145.58h-24.54L635.65,503.09z
	 M632.53,483.12l-10.19-64.68l-10.19,64.68H632.53z"/>
<polyline class="st1" points="701.58,121.92 701.58,513.9 738.81,513.9 738.81,535.53 677.45,535.53 677.45,121.92 "/>
<rect x="320.56" y="164.85" class="st1" width="8.86" height="14.55"/>
<rect x="300.07" y="191.11" class="st1" width="9.99" height="16.41"/>
<rect x="335.32" y="186.63" class="st1" width="8.86" height="14.55"/>
<rect x="300.07" y="215.41" class="st1" width="9.99" height="16.41"/>
<polygon class="st1" points="163.58,186.54 153.93,188.35 153.93,165.44 163.58,163.63 "/>
<polygon class="st1" points="147,224.23 137.35,226.04 137.35,203.13 147,201.32 "/>
<polygon class="st1" points="163.58,220.91 153.93,222.72 153.93,199.81 163.58,198 "/>
<polygon class="st1" points="147,257.7 137.35,259.51 137.35,236.59 147,234.78 "/>
<polygon class="st1" points="163.58,254.38 153.93,256.19 153.93,233.28 163.58,231.47 "/>
<polygon class="st1" points="129.5,195.29 119.85,197.1 119.85,174.18 129.5,172.37 "/>
<polygon class="st1" points="112.31,198.91 102.66,200.71 102.66,177.8 112.31,175.99 "/>
<polygon class="st1" points="113.97,231.17 104.32,232.98 104.32,210.06 113.97,208.25 "/>
<polygon class="st1" points="131.46,260.41 121.81,262.22 121.81,239.31 131.46,237.5 "/>
<polygon class="st1" points="114.27,264.03 104.62,265.84 104.62,242.92 114.27,241.12 "/>
<rect x="508.17" y="168.72" class="st1" width="17.81" height="37.24"/>
<rect x="547.72" y="168.72" class="st1" width="17.81" height="37.24"/>
<rect x="508.17" y="222.38" class="st1" width="17.81" height="37.24"/>
<rect x="547.72" y="222.38" class="st1" width="17.81" height="37.24"/>
<rect x="547.72" y="274.54" class="st1" width="17.81" height="37.24"/>
<polygon class="st1" points="146.61,288.45 136.96,290.26 136.96,267.35 146.61,265.54 "/>
<polygon class="st1" points="163.2,285.14 153.55,286.94 153.55,264.03 163.2,262.22 "/>
<polygon class="st1" points="131.07,291.17 121.43,292.98 121.43,270.06 131.07,268.25 "/>
<rect x="211.76" y="196.98" class="st1" width="46.4" height="9.13"/>
<rect x="300.48" y="238.46" class="st1" width="9.99" height="16.41"/>
<rect x="333.09" y="238.87" class="st1" width="9.99" height="16.41"/>
<rect x="713.1" y="166.43" class="st1" width="13.28" height="11.29"/>
<rect x="713.1" y="198.97" class="st1" width="13.28" height="11.29"/>
<rect x="713.1" y="215.57" class="st1" width="13.28" height="11.29"/>
<rect x="713.1" y="233.49" class="st1" width="13.28" height="11.29"/>
<g>
	<path class="st1" d="M84.42,578.11h-5.04c0-4.8-2.61-7.04-6.25-7.04c-3.58,0-5.89,2.06-5.89,5.53c0,9.29,17.49,9.35,17.49,22.34
		c0,7.1-4.31,11.23-11.42,11.23c-6.98,0-11.66-4.31-11.66-12.21h5.04c0,5.16,2.79,7.35,6.68,7.35c3.64,0,6.31-2,6.31-6.13
		c0-9.9-17.49-10.08-17.49-22.59c0-6.01,3.83-10.38,10.93-10.38C79.8,566.21,84.42,570.52,84.42,578.11z"/>
	<path class="st1" d="M89.64,599.36v-13.6c0-7.1,3.52-10.63,8.87-10.63c4.07,0,6.56,2.37,7.35,3.95v-3.52h4.55v34.06h-4.55v-3.52
		c-0.79,1.58-3.28,4.01-7.35,4.01C93.04,610.11,89.64,606.47,89.64,599.36z M105.55,599.06v-13.18c0-4.37-2.13-6.62-5.53-6.62
		c-3.52,0-5.53,2.37-5.53,6.8v12.99c0,4.55,2,6.86,5.53,6.86C103.49,605.92,105.55,603.55,105.55,599.06z"/>
	<path class="st1" d="M122.31,609.62h-4.92v-45.84h4.92V609.62z"/>
	<path class="st1" d="M128.75,575.56h4.92v24.11c0,3.95,2.25,6.01,5.59,6.01c3.22,0,5.53-2.07,5.53-6.01v-24.11h4.86V599
		c0,6.86-3.89,11.11-10.38,11.11c-6.62,0-10.5-4.25-10.5-11.11V575.56z"/>
	<path class="st1" d="M155.52,599.42v-13.66c0-6.98,3.4-10.63,8.93-10.63c4.01,0,6.13,2.06,6.92,3.64v-15h4.98v45.84h-4.55v-3.52
		c-0.97,1.76-3.04,4.01-7.35,4.01C158.92,610.11,155.52,606.47,155.52,599.42z M171.49,599.12v-13.24c0-4.31-2.13-6.56-5.53-6.56
		c-3.58,0-5.53,2.43-5.53,6.8v12.99c0,4.43,2,6.86,5.53,6.86C169.43,605.98,171.49,603.61,171.49,599.12z"/>
	<path class="st1" d="M194.08,566.82h5.1v31.33c0,4.68,2.85,6.98,6.44,6.98c3.4,0,6.5-2.13,6.5-6.98v-31.33h5.16v31.15
		c0,7.16-4.86,12.14-11.66,12.14c-6.8,0-11.54-4.98-11.54-12.14V566.82z"/>
	<path class="st1" d="M236.71,580.05h-0.67c-5.4,0-6.98,3.89-6.98,10.02v19.55h-4.86v-34.06h4.61v4.31
		c0.67-1.94,2.91-4.74,7.04-4.74c0.49,0,0.85,0.06,0.85,0.06V580.05z"/>
	<path class="st1" d="M246.85,606.1v3.52h-4.61v-45.84h4.86v15.06c0.73-1.64,2.98-3.7,7.04-3.7c5.59,0,8.93,3.64,8.93,10.63v13.66
		c0,7.04-3.34,10.69-8.93,10.69C249.88,610.11,247.82,608.05,246.85,606.1z M258.2,599.12v-13.05c0-4.31-2-6.8-5.59-6.8
		c-3.34,0-5.53,2.31-5.53,6.56v13.3c0,4.49,2.06,6.86,5.53,6.86C256.14,605.98,258.2,603.55,258.2,599.12z"/>
	<path class="st1" d="M268.77,599.36v-13.6c0-7.1,3.52-10.63,8.87-10.63c4.07,0,6.56,2.37,7.35,3.95v-3.52h4.55v34.06h-4.55v-3.52
		c-0.79,1.58-3.28,4.01-7.35,4.01C272.17,610.11,268.77,606.47,268.77,599.36z M284.68,599.06v-13.18c0-4.37-2.13-6.62-5.53-6.62
		c-3.52,0-5.53,2.37-5.53,6.8v12.99c0,4.55,2,6.86,5.53,6.86C282.61,605.92,284.68,603.55,284.68,599.06z"/>
	<path class="st1" d="M301.37,609.62h-4.86v-34.06h4.61v3.58c0.79-1.64,3.22-4.01,7.29-4.01c6.31,0,8.93,4.19,8.93,11.78v22.71
		h-4.86v-22.47c0-5.1-0.91-7.89-5.59-7.89c-3.76,0-5.53,2.25-5.53,6.8V609.62z"/>
	<path class="st1" d="M323.29,599.36v-13.6c0-7.1,3.52-10.63,8.87-10.63c4.07,0,6.56,2.37,7.35,3.95v-3.52h4.55v34.06h-4.55v-3.52
		c-0.79,1.58-3.28,4.01-7.35,4.01C326.69,610.11,323.29,606.47,323.29,599.36z M339.2,599.06v-13.18c0-4.37-2.13-6.62-5.53-6.62
		c-3.52,0-5.53,2.37-5.53,6.8v12.99c0,4.55,2,6.86,5.53,6.86C337.14,605.92,339.2,603.55,339.2,599.06z"/>
	<path class="st1" d="M381.95,594.2h-15.97v4.55c0,4.43,1.88,7.16,5.59,7.16c3.28,0,5.53-2.06,5.53-5.1v-1.09h4.86c0,0,0,0,0,0.55
		c0,5.4-3.58,9.84-10.38,9.84c-6.62,0-10.38-4.37-10.38-11.23V586c0-6.62,3.76-10.93,10.38-10.93c6.5,0,10.38,4.31,10.38,10.93
		V594.2z M371.57,579.32c-3.28,0-5.59,2.06-5.59,6.01v5.28h11.11v-5.16C377.09,581.57,374.84,579.32,371.57,579.32z"/>
	<path class="st1" d="M393,609.62h-4.86v-34.06h4.61v3.58c0.79-1.64,3.22-4.01,7.29-4.01c6.31,0,8.93,4.19,8.93,11.78v22.71h-4.86
		v-22.47c0-5.1-0.91-7.89-5.59-7.89c-3.76,0-5.53,2.25-5.53,6.8V609.62z"/>
	<path class="st1" d="M443.46,600.03h-12.39l-2.37,9.59h-5.22l11.05-42.81h5.59l10.87,42.81h-5.22L443.46,600.03z M432.1,595.54
		h10.38l-5.1-21.49L432.1,595.54z"/>
	<path class="st1" d="M459.97,609.62h-4.86v-34.06h4.61v2.98c0.73-1.21,2.49-3.4,6.13-3.4c2.98,0,5.53,1.46,6.8,4.31
		c0.97-2.13,3.46-4.31,7.17-4.31c5.4,0,7.53,4.01,7.53,11.11v23.38h-4.86V585.7c0-4.01-0.91-6.19-4.07-6.19
		c-3.52,0-4.74,2.07-4.74,6.01v24.11h-4.86V585.7c0-4.19-1.09-6.56-4.43-6.56c-2.73,0-4.43,1.94-4.43,5.77V609.62z"/>
	<path class="st1" d="M514.02,594.2h-15.97v4.55c0,4.43,1.88,7.16,5.59,7.16c3.28,0,5.53-2.06,5.53-5.1v-1.09h4.86c0,0,0,0,0,0.55
		c0,5.4-3.58,9.84-10.38,9.84c-6.62,0-10.38-4.37-10.38-11.23V586c0-6.62,3.76-10.93,10.38-10.93c6.5,0,10.38,4.31,10.38,10.93
		V594.2z M503.63,579.32c-3.28,0-5.59,2.06-5.59,6.01v5.28h11.11v-5.16C509.16,581.57,506.91,579.32,503.63,579.32z M501.33,571.86
		l3.52-7.83h5.28l-4.92,7.83H501.33z"/>
	<path class="st1" d="M532.66,580.05h-0.67c-5.4,0-6.98,3.89-6.98,10.02v19.55h-4.86v-34.06h4.61v4.31
		c0.67-1.94,2.91-4.74,7.04-4.74c0.49,0,0.85,0.06,0.85,0.06V580.05z"/>
	<path class="st1" d="M540.49,571.61c-1.7,0-3.04-1.34-3.04-3.04s1.34-3.04,3.04-3.04s3.1,1.34,3.1,3.04
		S542.19,571.61,540.49,571.61z M542.92,609.62H538v-34.06h4.92V609.62z"/>
	<path class="st1" d="M565.02,598.88h4.86c0,6.98-3.77,11.23-10.38,11.23c-6.62,0-10.38-4.25-10.38-11.11v-12.87
		c0-6.62,3.76-10.99,10.38-10.99c6.68,0,10.38,4.31,10.38,11.29h-4.86c0-4.43-1.76-6.8-5.53-6.8c-3.4,0-5.59,2.06-5.59,5.95v14.09
		c0,3.95,2.25,6.01,5.59,6.01C563.08,605.68,565.02,603.37,565.02,598.88z"/>
	<path class="st1" d="M575.16,599.36v-13.6c0-7.1,3.52-10.63,8.87-10.63c4.07,0,6.56,2.37,7.35,3.95v-3.52h4.55v34.06h-4.55v-3.52
		c-0.79,1.58-3.28,4.01-7.35,4.01C578.56,610.11,575.16,606.47,575.16,599.36z M591.07,599.06v-13.18c0-4.37-2.12-6.62-5.53-6.62
		c-3.52,0-5.53,2.37-5.53,6.8v12.99c0,4.55,2,6.86,5.53,6.86C589.01,605.92,591.07,603.55,591.07,599.06z"/>
	<path class="st1" d="M632.3,609.62h-18.16v-42.81h5.1v37.83h13.06V609.62z"/>
	<path class="st1" d="M634.49,599.36v-13.6c0-7.1,3.52-10.63,8.87-10.63c4.07,0,6.56,2.37,7.35,3.95v-3.52h4.55v34.06h-4.55v-3.52
		c-0.79,1.58-3.28,4.01-7.35,4.01C637.89,610.11,634.49,606.47,634.49,599.36z M650.4,599.06v-13.18c0-4.37-2.13-6.62-5.53-6.62
		c-3.52,0-5.53,2.37-5.53,6.8v12.99c0,4.55,2,6.86,5.53,6.86C648.33,605.92,650.4,603.55,650.4,599.06z"/>
	<path class="st1" d="M660.23,575.92c3.16,0,4.43-1.34,4.43-6.38h3.22v6.01h6.19v4.31h-6.19v16.39c0,6.74-0.12,9.17,4.31,9.29
		c0.67,0,1.46-0.06,2-0.06v4.37c-0.49,0.06-1.52,0.12-2.43,0.12c-7.89,0-8.74-4.55-8.74-12.08v-18.03h-2.79V575.92z"/>
	<path class="st1" d="M682.03,571.61c-1.7,0-3.04-1.34-3.04-3.04s1.34-3.04,3.04-3.04s3.1,1.34,3.1,3.04
		S683.73,571.61,682.03,571.61z M684.46,609.62h-4.92v-34.06h4.92V609.62z"/>
	<path class="st1" d="M696.12,609.62h-4.86v-34.06h4.61v3.58c0.79-1.64,3.22-4.01,7.29-4.01c6.31,0,8.93,4.19,8.93,11.78v22.71
		h-4.86v-22.47c0-5.1-0.91-7.89-5.59-7.89c-3.76,0-5.53,2.25-5.53,6.8V609.62z"/>
	<path class="st1" d="M718.04,599.36v-13.6c0-7.1,3.52-10.63,8.87-10.63c4.07,0,6.56,2.37,7.35,3.95v-3.52h4.55v34.06h-4.55v-3.52
		c-0.79,1.58-3.28,4.01-7.35,4.01C721.44,610.11,718.04,606.47,718.04,599.36z M733.95,599.06v-13.18c0-4.37-2.13-6.62-5.53-6.62
		c-3.52,0-5.53,2.37-5.53,6.8v12.99c0,4.55,2,6.86,5.53,6.86C731.88,605.92,733.95,603.55,733.95,599.06z"/>
</g>
</svg>
